<mxfile host="app.diagrams.net" modified="2024-01-01T11:04:10.481Z" agent="Mozilla/5.0 (Windows NT 10.0; Win64; x64; rv:121.0) Gecko/20100101 Firefox/121.0" etag="l_MVbb7rtnH-cQ4Kiipb" version="22.1.16" type="github">
  <diagram name="Page-1" id="c_d4CukKyZXo5iveMngy">
    <mxGraphModel dx="3500" dy="2867" grid="1" gridSize="10" guides="1" tooltips="1" connect="1" arrows="1" fold="1" page="1" pageScale="1" pageWidth="850" pageHeight="1100" backgroundImage="{&quot;src&quot;:&quot;https://i.pinimg.com/originals/87/c1/2e/87c12ec23d483ebeebe83279af05d359.jpg&quot;,&quot;width&quot;:&quot;2202&quot;,&quot;height&quot;:&quot;3000&quot;,&quot;x&quot;:0,&quot;y&quot;:0}" math="0" shadow="0">
      <root>
        <mxCell id="0" />
        <mxCell id="1" parent="0" />
        <UserObject label="" link="https://pics.craiyon.com/2023-09-19/471a913ada154ed29d4ad4999fc4b04e.webp" id="377UjnZa45Ls0XzChAwu-17">
          <mxCell style="group" vertex="1" connectable="0" parent="1">
            <mxGeometry x="80" y="-941" width="690" height="782.8000000000001" as="geometry" />
          </mxCell>
        </UserObject>
        <mxCell id="377UjnZa45Ls0XzChAwu-3" value="" style="shape=image;verticalLabelPosition=bottom;labelBackgroundColor=default;verticalAlign=top;aspect=fixed;imageAspect=0;image=data:image/webp,UklGRq6nAABXRUJQVlA4IKKnAACQJAKdASpYAsoBPlEkjkUjoiMT2qY8OAUEs7c1779IqVcpFrNKFx8OO43qvA7KvrDjHJL7h4Z8Y8C/SHSnzmd2ZaB6VOXnz5m99b+cX1Lf1j/Wf9z3BehZ5k/2g/cr3ePyq9/P+B6MP2tv6X/0vZ26ajILfm3le+e9af6B9q/0v8R6QOI/tm1EfBP+v67f8bvZ/Wf7D0Bfz/+s+ez+t2Yu+f779wPYI94/vn7Qesn+n5o/u//E9gH+hf3z02/8XhM/k/+r+5XwBf0//I//T/O+7//vf/n/i/731K/tn/F/bf4Cf6J/fv2c9uz/5e7b93///7r/7Mf/Q/32tl3tXJuaWLaz8Kvm31XJuqWLaz8Kvm31XJuqWLaz8KY5o1ZzT9YGvk9vI5zlBm9Hq2c8sqzmYvI5ztKi+tO97XBNbVkShu0gkX0I9vHi2fRcNL98WJ9XLHJLF8ONW/O5P1XYX39dSFbmLb18yTgG1Pyvw+K3JfkQrkFQv9bm3nGa/V3y5KL5iug5lmWCtECMIrEcpNGa5wgvD/CDd6qMwnS+Dj4cDmROvgpNLJQFSyRSwyWqGLTUMJYOlyKVfLlv7zfkCBkkqo75a3N+xvuJeGrds+OvfQE1gve/O3drLmiqK+Zd1j6yTy7Fk+XKuMR1z3rrgL824nAt3+iGPEnhxXNZLFa2oq9URID7fXfIGfUp0fXC6REwEDT6lUarvFbCpotUVQrRw/khYeBtkYKwGv1uVnfI6Y9O/N0tLLSm5eWhXwswxrqxvFOo7sh6ndrfd0I+Op7szXaEvs7X8u1C8Cg/k95W0989Z5w7fMqA/PtdMFBQzHGliRbSSJWh75dpTPHpzV7NguE/PpXsMhXVeaMkxB6Zw7B4HIulpohgzp3B7RhqPAYkbvL3g7z615T6tOVTdatl4L7GOTH76QaEV1DzJX1Qrpj2DhFtLiDvyigmkIWGSOYDX5Waif8HigYCMUE2Z+sWaF8ewnzM1f12/Bj8qWCgINXrFBbbbCz/bSq0PcLSVeVuLtat8Y2CSXMQdbAYzEz1dsAUy5xC5HEUt7+RQVg6JWDEZ876YkSQxZT9Xz96scojw5BZ8++kuqE1pvJIsIw0s0MX2mcDCMT2Lw0dTm6fBytn3SGw+bhrfbT1TBsjZc/UbcJ1ijaX/TFkK+0v4t2ErnFg4YDn/L3OtKZ2O65owPv/Rd45ia8vk5dvCgfbPvc/+aiALCa5u8bVfZJe0vX6rdbVqR1tPgwaz59ELc8lgu4vbQQW83F/e3jfYB8qqYpuMofb4Ceh20tuiaPT3+ggvKdmbxL0VSOPM4iKt5MbbiMNFGS1ap3kL1tu5PvNpgmzpA8EvUvoh4FJuE0zNVuaOorSIufGfMEFl4Yxhlyj+TOfZpl4pd8NiV1aZebjiCj4uoYjEO3ZQjguP9HMBfEZK/E4hVe0sG3nMvKDHzWqbX6U2jW6xbezu1DbsagmIrWqEgKuwvDUFy+Udd5/5DN0njvkmVU/aguxV9JRL30DUGo8rKFFcB0aMWkbTKiAJlFtFlT5d4KOiBdtsKe3QN3/O3nvsRk6IaXdkhDuv6AGCq1DLujH6lLZ1D9GBnRoT3K8qp3xTmbVXuu9LaU4p7/u9uFLvqQ7KRpYO/qdH4HJNUvngTTvSM1Do7pw5Y83yAOj3fFxBuzgF+fYffQfkEDQkkmEuaIwfnc0HHYEqodsn+v96WZQv5owD0NLvoKvQC04QGZgdO4zy9isAuiw5L9l6LQf+noNuls/zyOdmabyuMPnq+WiW49bgxpWBnrLBIntnf1QzWnbzH5T28Ufj9lV1MsFU9t6TktTKzl4ewdiWeU7TorUYZtL6DOe+mWUrDQi+4cko6TtdFYTWZt8fWd3N1rT0PRhPZXBnyI6829yslQSFWXurSd+8MKPePRMhlQJ4VNJbD4PuLSXh+2OAsaYnlszJxBHIpTa3p8OCcvqRjOmDY3OvFLO+Xg6XL/4LxdrJufR/Zgxa0yxvLjDQQN1050O92hK1hX2pFgGWZjxGyG/s2lKneGNYEIJJ4xadDK7y/I8giP9N8Om8GWlOJwJ5NKhkQhBS0m+IaOk5CJzSX6YYBjnNoDA/0SPOKbjnji1Jp+uvb90GlWXeB6MQm8Wr5rHXuOzQ3z6mkHRT7sk1PFNfPBnc2vA8pCbVOX0W44fEo+qMYPNNcK1olRB+Tat2r2GQVM3v43F/07N1OWyobTccZ5WP+K9a9n548Wx1na+GTH3PkHvU7JLDEspBzjG1bndStkYpynJ532QRipS6vJNpt9C3aUzZc29U1yj+yLWLrMLWLWRR3F7s4LTrzoQHBoHMrgRZ4AEbSFepMeUfs7TeL06eOzTH+d9oh1Tjn5hlEU5nsXcILeFzsorxoV8FSurvrMWl4nnPx0T+koC22+135uMKXyQWin7bWrxH8JtpEtqyb/N6fR+hO2GWJL7gdIegz944WpXZs/eXRx3rzFdMXlJ5AS4y+5f88Qwf4qddgEKdCzCWejbLZVusFdW7uqG1MLMozgU5qzG6CRma9KwtikL5Kmi8klKV63TLuppgTeysQYj/qZQkgU46sEkhEEBZbnTQSPX5f5R5Ltp8aGdFT04/n4ubc4uYKalmFN+xlDy/7CKzuYgICrW9FPtj83DNlzDNwyeY0n1oCvUX39+V/pu9K1WJFL/x++4MRcpE89ZAXlyXp5Zf8TLcTBLFAWOfgFFRA6n3A+v6DeW9Ao6qOwIDGf94ZdsHAXnrYLPKptkrUL7eguBpa7PBZsd1Lpq6Um6XjJPeCFaJrvCEbC33mmt8g1jG+ktlX3EVMHt3l8GbTc9sWSEZ5goOrUCHbF4cLyOG1dzbM7n92qZg+sFYYnbROUn3xi0d/8rpnfjouNHDXETWQ7Qrltaub3Mn9ATdbnWL7OQxTLy1J+q4ff/Dr2IQmq88o6M8f4knPYIVe+8zSXhfYV+4d1+sgCPGLb420Ll+EZdai+UdQdq3YWoto8I9go0svRYPyoHNUUmxQpFP6jeXfZUMYDiT5bIh4UhDy02ZwcePq6PGO1dS7KxSYPWXKlUsS4b5LYCIPh13BkCePlOOJ9fC36skvRlAphJ/UzlwVEuK2q1vfM45GcHybr3wb0gtnyEiv1a1wfW7EfnBnxlWhmp7QNePyo5HSAXgynadd9gEeEWFlVuFexvegnnQAdGx/yK1pDYT2Emq+sIEmyOCacLEldysvJpjmPS53ZpepEL2R08fq+ZeAAFdqSY5E6fiTduVOQ4d6mfQ55lR+60pgAFHIqkoagU38Tq4/qwm2Gv5sPxRXhoapmYLn3KKEX+xFhdiDVuLndEk3CegUxtBbNs5QnXKZhq0PvJ3/j+sGNql76TMUgyXgUqeYZdtKgHSRpPr8B4hcV2EUHb27+FxWT5Cu3RpVHIhibt4ueuwczc5eVoPYd8++vbqt8F076TqJGETt/bI5zfNmQ6vugPoXWHVh3l/NybQzgxnfb/DeR+YcWrCQEEa9NxMMLNYOx5G/0m6SY1S02KOoV3EiW1GDvOlnwzcw1x0N0IInx7WNb+W2D710gYiq3d4gml/AA3UHAysx2BYTXaoFMk3oyLZT77uzRYSvZQG79olM3lUU5Rj2wGKu++zsPcv6LMRlgeqBvK+VqOrJRTvMDPtnHtZ0Wc/hDdl9eYAFGqYdQbOUlJZJNrDMZ910d5zwDTfRam2OMpWlKGgWFshZaki40iYJ0PmshFznO85tvQU44cMuaOocSR/RzEsr5dckFNwr1QMyq69XrPp/h7VHrlP7M/1kiXPnnam1KWK9+EX4QiM3QixBPUa/+DXH2RVEQeyri0/5o9nPo33SnOaUgHEdLw2139r8M+mcAhWMHq7ZCqIP/uWo8gwIWqyJK5eI6d5MJDVgrdaaC6tT4ZvrODjGERziwaTMZNgRVKEBCatkEL8Cl5N9hJvpKkUFqy54314O4zb253/6q/2kKFyDLBMhIha+Ycswz6l+wPLWn/qGQv92xMn4TCp79P4QoD0/EnZsGOiBnmUbE94aWNcxve1pi6mGOpkrCWm3UBB5b8Bjr0iB+2dPVaxG1iujA1nWTrg/vGT3v95KWN6NA4qb3WmGLQH/VLxO9PHW8Mr3NsovJ3dJ5nXWQT11WxDM5ZKTbT1IC2ALU4YTamy7hZPwsYi4NZUuut2rtneyLc4ad12jEDPFhyUSuQN/gID2pxJEYtG7gM0kgCiKFMKy5ETMoAveY4ZhgE8eq6aO5K+U6Ftzs5VgxvvK35VjnIULKDlMBD3xrq010kMv7Ir3tLknEByiwD7Vtlm7yOH54uqTokrM7Ur/kMr6zyxaIJ6FMuTI733VkbJO20Fxxh/mK20e9TcDyJXjXUaDFi5fibku/oTi3miYh4oItZZBHb0GaqDPjQnsbLgOWFIyFc4MpWq7oyraLCOzetXxi580gffbEL+O2+I3smQubtPJ+2WdupNWLCc9bWURxFhSfsXSaKPG6RsO4s2xvSR5miQ8vBt2Xi4sqkiELEu4Ka3yCtnGzw1YyFGgCZs5mv+sKu0cLchXtqpJbsA4R1RFjoQW+XnLIvkXBtZ3otAigwsiw0e2NHFFcFAzZlntYg2cesqCOcTd4BtOe8u6XVYto60cKNa34zfqQKOqAa3AGGuwnl7LcmAPwerUsS8CJg/bG8+qHqreZQKBHO9Dsu4XeJJ92WZyfqn30NuGolo2IkCgJT0QG7VcA5/1lIkzoNh+yFZoqkymga92cpc9ec49FsTKB/eevUlcn/DtpesD73CFhgxoHZiT42oyLheh1l/nfgevNGzTeKd6ACjUI5K4woPPMNK/E2fr4GEchb5mLrDcv3g/MIwfnrVp4g9tU7bEr2pTar9cYMnn3VwbAWEWoI3pbQ4c1+39O0bvJJPucmY4NPNFZ36/UaEZWWnc2Q1pTZXujvZz6TITASfNLMSqg0PwjveU5Ua86cuba9TqR3sGK3yA6wCnNrfNQTP8tl6WFmfBc1ALIMtZFb2UYe7PW2hr/+zP2COi2xrUaezqyy3xa8+uuwrfBSq8VcJX5SRmXYUNwwT4sskg8h2TKkLGaKY0cQmflXwFoogWoeHXYV3gSdheaYl0Vd7m3rGBj2bx23lVI9vgkTo9Wa5PzI2j9GCI0UBqnG5wyeA0zt6t15QH7YWvUnqm4v8exnXeDgT3YO8jR/clm2Ijaqb1e5tIJ78gwECCPWxNhSIDbb3Bj7I9NB5eHgfSUSs7n0hDtYykpXdIDlfGQAVDEzYVCZfM3RXP8FPlLYtRxVMhqxWyrw3PhbMupjiIw9xfNS/5CFM7V88jGYIwBN7KGduIgZtdVJbygrQ3Q+u3nB7ZjOuVUtYVp06S22l1MrIp8Q/P30TtDxgUs+nFpTYcDpec/FGvgk61K71rXNCDKcZoa4U120nBPJhv1b8lUsXkGgiCGk9CUmh3mIL7Kb+2RtG93zRKzJ8d5WnMlHKUInftoEbM8qaV+T9gUiw6Unds8CmksSzduPS87kJ2jt+V4f1wBqom2JmtYVCHMqecTt4On9xzBmgPcL7zVlNHwwJIFdvV93bcn2QSxz20R9PNWJfUvZMDUZa2bDScmQis69xGgbEIN6uSPs3Hkyejx/6+SMfpiD1y8hLazT//XEBu/+Yd1/8rvMqEE7ianfvUjdXrnBqWgBkkFJIdl7bcTO1lExbnhUhYdelv7cTKAxiZ/wFlKLmWFjrNqR0IO2ZPrUZqmLziWsUaqRGS4gyeS+KUPREj0QPj/GyUsIC4kYx5kA/lJXKd2NUts6cpwQwSHez78d1xTPIZLQNFG72rcVwuAh2KcEaEhzcFrAnOPnOc5znOc5znOc30uRrWta1rWta1rWta1UAAD+/Tk4P9/PEftVDH+yO2mq+KQogSfYsAAAAAAAAAAAAAABywICM6qxvrgArd5pBnL0r6HtxpxDB+8hWoMs7h/j8pxAlWohN7v6H9rjTdmc/Wulty/YspDr7cZYjg5ACTKW7DYWIAVePiMmFlmnax4vQCf2lgmi7LLkciVLcKI0O1ZqnQkAjvvV+NWXTfDA+CjKROEyAL8qYZnIsFyl4bUQn6nQgIZedICipvYvo6oX2w3I1p0Q+lTVjBiN3HdWecG8u8a50HUpKsc8cRWjr3H1KD07Ac0lbkM3UFCtzgXIhFupKpXOIhOnO/QEiQdUHXfQM5PNUCvVksvAV0YyFvSEv0U0bMMrEVhluSEzhIt55hEG5nnlCNSV2Cik0s9MAun9wmb2qgXAFv02FbIA3AOlGiGQH40S12NyznS5y0r2Q0QQJmWVGXYdaU2jP6EDX1/nUMj2nTSKHztZIZqI10FOGi3MUS0N/8NYGfhfX0SLtNwBtv0gF22rWylA5LHFDHqy4CMOrkE0sgMPrnBV6ciBLBiRE4Vagx9Nhz63Ldj4vneSXJjW+of27v1dRsoQEtOz/MERLyYsjdnj+TN/7JPi2hcz4Gm4PFw7iRkP7EOG2ZqM8wjQ7frc5lZjxzeZzo2LKF+kKdevhaDnyKqFDIv6QJzSpzH562gnCfsa/Rh5pjV41/pXxTlC94/HLQ+NhBIq66RMbZ+71+m+b64de6G3+dU1eG8cCo9IJk3btGqof9V/0VtO1paGG3RZkJ3SReqSIC8n/0f04foXaQ/exOTAyUKuNniEvrqh2gy+KwHD7VXRvPToGgUyKKsUcDUH2x+KfJs2oWO6urFcMbULb056coa0Xh5S6t+X8/ZqKVT9odVXbd0VWln1DwMVhrlB+ZUZxRJUl1n29ZHthZxz9UjOsuR/bTeDI0JtjCmsNQrXI1k862R4hmhf5pw+XYv41hhvoCRv4MmZAREVBUj2OdudwPAx/rU1SSUzKpoEJ4HuI2sE461uFUl4McpHCLGjTa/1GeGC3qpxqzwxo42GeKaBrp3aNtkIkIgOv3UweTuDTDxUnzuve3dSWg0nDmXIjlc3/cQMqWAfSTcwgn42elKM/nXLkixU83NqE6bHj64A5AX72cqk7ADM8plnBtklPPeqYOGuCaZvfJvmpSLgU8cUHZC3mBclyEkLAxdRo9qZXqAO5U8eul3kurFNrQ3RdWad682kn//bbmuGs6kY++2uZMDS1M3geqnwQ/BTuQKUvk6ywA6C4mPmxVfkgfoYfdx+pMulr8tvhIyHzG7HszehkNc4X/qQH3zyBlrzlzTYRxDQJR9jKbBBiuHl8HcQZU9wisQ9l8nU1KCNlAvvuVkCavd4tRLX4IQvP+YEfAa79uODdKgg7q/gYuI6N0BtDCaYjb+0v4vOeQzkEU3ssLRuCOPo1Ue6LlLfmeVxk0QYFD7myJc9YWJtuQY2kpHVbJOxa1VmPSznoLOdooT0y2Y/JvcI2XuKIyCfe6ul1qIcEjSNqDMclGnKDLvnQRUUNaZP1LVVUVKjlhwF857Ns5WEuLfeOsA/TPhiVdfkx7GkrcaYEwFDBamqTuYdjXF7gNmVgCbTLlJAM87GhtRgtZovcBei5Au2amnBuZI1WmYe62uj+RIVUgpIGWg+T1FhSqoiN28Rb18SLyS+zX+XJ0M+mvcmskUzWE4kSLqumQirbICff9zjMDObI/KMXiRwell79KaE2Prbovz35a/usu4dZhM/gy4ye5WmfYyFludDAnYD+xXQoXbSEGvqfDl53Ad3nD6j3hzFW+F5m8oYp1+OKrT3rHn84DgrJYU+2yVOP01HscYWjaDaoL1SNjpyt6aBPdSaFOTd43qxT+u8BoFmHf/+kbP4fzzRqhtiums9QQPmPl/wOOhqOgdI+YDuYE+CZqkm2qDfLBFcQmeT6DXVRrKvvhkWCRkpnKGSZkb3oVVaYsA4HivUI4hgCnewkjylCgL1PF/djH3dB9SgF540/qeEueaRXnZtmMYw+JM8Ubk03JIciWhHIHxUioeAND1CuRRQl/k5XhHaENfcaRE8CtYFT4l2sYXUCsUdHr+JLz+LE6CSxXvEQtzf8oDDsHJe6p4mci7rf95Z86uF8kOmEvC14ZncIl69eJyOMaEYgEYQeHY41c8FEnD/c5kxfOLAuMlRn3OmJ5YlHB5g7dhZZYb3x/QixLCPvgvKlaoNyZf84jWW24zQWA0SXAOyjPi8vghmsthTuZatntQbVqR0gOgSWfZ8MNZXZNhsouRx41v6M+ZzRCnE+lf+Tr6ufes055t1UmDvqUNpFnxs8KOYiTMtAGrA4zn0WttN0EjTU8NUUZZroe5JOG9sSeZHMiSYTJdXrtar+5NVjPVZvJs8NE5zElisPbPFtuv5M21gkq4dhKn89Xk24p9hGkfkbnQq75Un33AkkFt8KL475bgNnmntuiqwUS0vyrank7MFZO/HKZDdY3nrPACG+zTopMXZh2N82+Wmb3PTV4nM/RVEKsj/ZI/MZXLu7M86fRpzZPuwyzrsC6JZnE6qPVLvq3qRRVZnS6wi3UzbR/XeA1WPqiHuPrGfwhZDkhif/6mu9NS1yO6oIxozqu5MQopcSvJP8v5wpPqnaLLA0ENSkXlH1EgvRpDMBe5XT0FXf7ihY+44NYOG6WoE1nM/w8h5S9yfrL071ffRrABuhjEZljYJCkeTurEygVDNXiF+Di07ozRs4KF/w8Ed/okZcZ4Jmi8EmxEzvce+MGnrnJ6sMowPO9xX9KqyrSEcJs9J6yABKQQpCxcEUh0VF5VlrhEmwkSK33CMhSz2EgKAqULfPrcNSAAdF/w6wa3Myj6TJVS248IcTREX7ndt304xxniGFfZKHy+QfI6tLxSUWmH1ywfHfv4vaiO7EJfR3gkYynx1HipXcp3muC5+R1k9lho3WuynWKNXosGPQP6l3vXqu7DmA+v/OKdNOa4HvQ8G7kI2e6VaBZDKv2RBGwuXfC604OpG1BuOzty72MP4eS+cIO4oImJCfqnLkLTrt6V02c6ogILWPVOjz81iRdat1d6RjRqbelGkCAJM185Rm3JjG8ZO68lgOvDHwhNW43QrPF0pT3pmU2CcopP0yXXeDwFMIEKBUm7g+mRSLxshEv23ZKq2fOYHPYj21w6J9gdR6FWjkETFYLCLfFZD6AAAwzRcBmMRz5DBlnK+XOidteXJyc479ZevXCOnhNApsNe2dXSphEmCv+glBLr4yGhCE483dofKwQsyTxt8yrvkFsyk7aJzn1DDlL7wM9cIyjeGgbBMATfMnNpTAM/6s3sFhIDXhqPbGfB1cbe2UyZYZdMugB1Yhptajo3EuV13SMSKesh9WT9eQRBOeVU3mX4XLKoAcbZyCW1o6f5h575O8OC3FM2ZQkE+fHCaJCsaaBVG8eAxLG2s6oJO+qlWsIrIEilLcUd0ZW/HxQRYYyR7d3l6ssUzAdm14f+C2p27hF9CKuHhUjSe12+Q9lRkdzbAhQnF/ptqHS+fjfAe6iVKwsQuXclWoHujQbCXs9YaCaxP2aA/z59drXbSJGW1UHoj+CWeNfZgpQ0w7Npa0vnjtwZX/K4LBv4rJX67+roVyj6r3VYBfrMolZXX5y0r8e19t93VygnU/MQ8k93MZT0R+SPftTsmk22kl7WfqQt/IFNNE+nKqRwNgGy4Yfcp2ZptlX434JoGToLCI1o3FALiZ3YO5CE7ixvf68ywg/rg7gmG1x4qdocgp/3k7rNYup4ra+8fPIUViZNUoMzrKp0OgJXmu2s+/lZhVXJfGJeDr5d8kKyyDeLghP3LH+Dy0fpRJ3WWNtybVQppliTF0qIAgN82fPlAIpHLUOWxM42BiSs/+Lmm0XaiE3wviNabHUTab26cojfGuajK9RXYMw85HH/pLjNuGTRNF+M5IozdY0OLTh/I6DZBsB9IQCfnbkJcQ2b3H6eDTbt1NwmG1vIKKfrFATKSGhVOxHIjte4v0YoEyjU39oWOYQbWcxtTWcIH85fSKwABiMUTVGD2rOciqTHDisum58CTYHIwPTLHKooAhiT+TM9XcRinwsmCCt1XY7TMGoHZNw4/lZkRGyKUnS7pCFoGdY0+xpDxuVbmINyvwiujd1PjjFbEWpS/s11kXw0sbnngc6bqQmQXgyQxYbsOCLn9gr1FAvXi86b7peViSiEbU1ejufyo3BVeoiHhENbJPCtsa1yUQRqqJValeYIjcxeUp2qO6hl/87w8oNxpRagA/FxJk+ILC4jL/hEd3B0ENAaVgxK4o3CaqWWP1Hfd4kjevQIThWRrEFibhoSeK8pSo7UwRO+OpWO0HFxwlqCF72jnt4Fn/A/3x0UBXcZOrxyW6o5pq0e/S8bOpJ+e3gm2Ezm01zWI8iLkHRpeX3qu24vkRqtE7hIZ+qgsudUd9eLPkWecxJqasKJ8YfbKDpfb4s3xJcuAXlyHB1wPK1OXR5K40i6UdAweQbzHJIx5jEZSs6pHT3UKmkcBegQOIGoNpFLKI3ANkImqW935e63qbzvzJUVM8SE3on/0eYgGATt+5uJK/XzZWuUbaD/aIbj721B4PRopG919DklbQO4qatMWTGvWqs8DBxOTSKFaidYBF0G/hje4h0RM79qEVGOToPM7gERYst/Cq76cnQcuq0imG1UliPmdOJr7+7ptkjnnINNSiiNZAwaP1dIic3zwgI9YN5v4WPpHYh40Ac7QpTOxfUC7G6BqvZ9CsIKjxQAaMOlIgvT0/9Dlbing3ooaYHiRWY1nm0GqJXn/XVIZy4g/ItVEUgy7LVlppOO/XphiLThXuppuOq6hCypnKxMAve1yfXLwQoh748nj11o6tRGXWefRR/9ZkcgZ4wEzBOLTOoafHgvcdlxgxiav7G9UFqwMlIDe5UMpZ8TSLTnaV/DScsTnGE/mo9j2dgNl/dqXfib257La8FYxpA5n0v50uYzWSAMEtlF5GZabng7oR+SEZAvC+p+yNc7i7AgxrkWCkmffvANT2SqNvknhQWuXsHz7US+wxygpcELqrD9NywThMUZuYaJcJuvV64w1QzG7DFkaBzccjSj40AMza9pkYdH26dZbAil6OrcCXXZsW1yZs877XmMa0HRTwSrAcFu8pxjvL7v/Tze7aSKBRsLdkn1XUNPs1dx+Qz+/OBwIaJT3Yf5SlV07j/C5dSp9EtwoLjKbvxspiUmi2sJa48F3iptq2ZGAx7cyzVsAdHQUcc+WRkLtBVoFDfVf8JMLlnqxbpGWYIwi3rHbaWiixtfBJGu712A1fzP21LufHm2lFu/LMkr+fsOMWjMrsIf7M4Onue1j2HvPgToMrJUpK3Ejj6fDFpCfrXX3psLWhPfOze+8zwbYK25luEzYzS0Pk+Kq+m6cWIywQV15OahE749Ik+5gw+Zs0chqRsD0WdKPIVW9HOkgtTMpbKKZdQ77FppKMwqO0pXOOAERgKWuZQGQx6aPg8EKLQ4C0B2Btqfirc80DxbMasUJ30eecu9+DcN/ZxSlj/48qR+zCex2cKuHLHnQEj3nXBt+wd68LbqLz9zaejHWAjVCAefufgBu1fTrkpWm+mQm7t1+6NlOL9rcpSoJaFkz2XeDYhZmNLQVVo4Ef53Ac02W09YJWnaPiv+5q0uX8rAZRew63NbPXgaYCyKd4djrFbQm5q7m/KTtM8pQrHNyFv+n0HwYTmvrN/Wh+oJEZKPVvrkrKdGOG/CNpY+E9EBhfG6MOAYgqXiX2YT6V+zUVzsbPhHEJ3oQsgscqX1TsfpYm/0uSAmSenM1jMluAhtXxzM5T3J+zPBoC6oJi2sHyn5llpsYA73SGnApwKi03cmbfKBbB1Z7P2n6QLQRXLh3BiLTx4nvEA6U6FGbUzt1qhkcV+ebna4SDIUs32R06WBflZ8wAZV0IMA7I/jhcjll6dr2hAXh9mY+2XkOZ0XhZ4bnbtKPKnYIN6xtlzLD8x8DqmPFus4ctZkeCiOn45/k4LcyPK9QpdlW7qRekn/Fn9HB9v1PC5ZjrFLtk/sHuPQ8xFZZEbQCS3KUfYUm+u1WEoEqO76Vuvlk9p4b3Bed+83ZQqCpeaqM/+7chHWt6vXww8VfGShEgJ2mtXljNpBcuGZUBhlaFmKcxeAGSCJdCSrOx2UsLy57LYbEkp82/9fKWBLdXDnsDnoLGkZltsv8+73T9ljW2Xqj0v8ZUMoPLFuhWjTtzime4fjNyZcfphrOtHcANeHYjgkFB/EgKl1o0q7HPhvOZX0ZwIefRPd+cGmKtr40efhUwi2PW3U7ZeHWFukyAQTrjHVzInyMWtu8z/czhZBylTsUL0UQFHMrmOhDTJ3sVtPFOsk0VsixHHnCAvyhcTiuEV2XJ60oX63tT3L9x9x16WGjsXprHSoXxQQ8isvv2xPaD2bR3y+H7zuLRQMMYP54iLH0GKWEQVXhfwNyvQ4mKPQEZnybdergnUDNkadJao6NxLBTuYS/soJ59w7nDcsYa6UYVdp2K+GyUTF9XX5y3/g2JHaIc56fBX1PGNGh8sSgOjuBgeWa+f6UmKyPWh7MTOw8FQdehpsQ8uln6xuaqjFO/kTaq5FyplLnyaKaO2+ivOS9HvzSsvSnWzbYdfd1okCp4rkyv9LNamdiHSduuR3bayInJ7vIZ3KCWiUo4G5YToujCIyVrdJ+hbfpxDI7UtuAnuqzhCArGUbkjIIQIbICxJ76Chyw3iCmk3ogS8EiRfter7KBWtVv/cxCK3M98hMBp8gIGoWxOFDqfgl8C1DMusblu5w2jPTndiA06yN5xHE3jNV7FyEtOJJIt7mPUx4lBMDOeK3/7yiOgksPL0Bfj9qs9yTSs3p5mUF3kaasInj+CAR3i5vyHqpn36R+seiMQ0FhdAyhIyfvijkYCJ2HgfCk7I6uAMB7gqkp8J1ZNGNMDLd2owCaiyBvFDYfwK+MwyRoaeur1541QLXn1nIGeII0L5uKxJisU+5v2AOHnZ1MchDINCHvbd1jnUGn+NgbGvP/5jlmPnr6YFabGMSH+zzY0/Yuh7Fx9QXhcnO6xrIbnjM8OEJwB/34JPlBwhBcLqtRASNr6Gqq0VWPrNZ9+36kYubLYlEm0y2+SvGIB3R1M9qawB5ydCDeqd4+fEfBLRykeUs1+LTGJhfqRrgKmfzve0Mixb6kZko0u4cQDSTJ0mlVwFcVpJRMKa+auUTqgD0/qSnZz2jh/r+E3RPDtrarumC5AdNIFq7h9RvzUcvMHoaVA6WADrywRv9bNpRKyXtfxzCk87YS7m0mpVpHehb0hdeoYP10ISKgCI2rbnE8/YERcAZTusMczGRxXRQvCdGTk5QYVWAjBXxBi9e11u6uP/TVeJXjysbDgbbuBJTHPyK1OHHLzCun/l2EXGHg5RET3snIiV/cHc9i0+MgxMxsYExvT1FpV+SW52K2tN9g4XEfQT9nqMRPfj+NcpWIUnJrTeYCuRS5NXyYX4YEeqXWfDD96hbIx3nC7iDVIKQHPu3SSqWXOqeLOzQ45tXWZ0ODEypVT0wVU0koSbg7Zh35rGy2z+0HjazCislepCMi5Z/iE6hvVyOwZJRrxYlkgRz8kwN6oRMfTBZb0s47peV+CpYShDzYTjwXN38rZBdOAxWTDxKWGqXV0ZAKg/FUv5FM6lKPdmoJq6CstW3x5iXqtXflGE5yVRemUoWbdTeU63t0SmylEPiizxWITCc5qeIAmEHJD0Ie1vNiahJXcrqp/WPtny4IKouDXZOvVb/hFjpeoucpM0zJXQY1Lc7UTBJJB0a7FFEfnYoSxwzLrAJ6SBj46GcQAxANKll1XnamCph/uGTJsNJiqrv3u8onZoqfRnvdlFLlqSp3oyOoNVgIOiJpDKjw7w+PEiSWzFz8I3FbU3RKJZybZNKNJHZF8AcSO/FOqTnhI9dvP5O9zLzm4EQlz5tulSC5SWtiCtEA9ATmNrG6/4SjOLk98vLVHrWlygLqDBsRuvbdmsQLbvPs1Ge+DM/bAbFx2BUbfYi3X1xpfANRBKjtoQohcFyN8zlnkRllPSgLhxxdmxK200YpnX05r3g4vvKQoOSQjyWM++g/5yP2fQQUK69oQUFgnbvkZMnU96XLPj3ik+xhwjJpQvMglZCwXHNlxt8F6hdVFK5pxRmYZ4+bJoeGelmOHUWyl33e5PIcZNGyRASwuaVpt6uG4AOMSzGR99mWFH15ylC6+DyxyA7IudBeaqPHS0zG9Yg+/2e20z7WxbmZ1JhO4XQjfh4ExMx0JPoARCE/QZ0+7omxcM4DL0/4rM1Qz714JXfOBJn/boQbwyTxQgSeYaRDVBW+/cHgHq+fvONxc97YWhKMeBgJ9vRXm8jy9zxx88ZzLC+vos9DqVo/xUyn+f8gM97BqmcK5SLeuVydlX3BVayBPhfHSfpXVldCfjX+6jKnHEfasKBGTyrVJxhRaphJhWupOb8BR8wP5uXixQeR3tsY/FqARhEdIxSl36VSp63lABJAxSMZX4+VF/mVhxDC8GFyV7XtHAeMHWi6zVS0/xJNE+tiy8//LiroN3VZwBQobPOBTj16BrGjqdHg+7wYK/5Sn+c7v/0wtbECZyVEQ5LUW6TfonRwH09tyx8ygLsI4VsDKUzT7gh9dC9oOIJVJrhRocdzf4iWUZyFQKdxmBH9xJ7Al5NjO8I4s3dSKFVt8Cw4NK6Ou8gKZuoRHXuOe3QPq0Ha2FdGXXh4mt0PBH/SzVh/iH8Uxjj7fhBoQPGp/RGL4EU4CoMOLjNoAXZbKf+bB5u9KRRJXgQIHZy/e8HSt2Zb+8okkXgVgk09Qrkz1QnV1tf3CXrOYgJs4JJL70F4Xw7mhfBIaNx31Cw67i4K4Nfe+Le1dssNZ/C3k3EOM0ROrAr9+tCFvEzUm15kxzjnwSaEhDOju8boPiYo+yvncxPYaZCswRBGuWl6rxtv+NNO3HvWyHwozdZRXjPKGjcfZbigYmauC2f0DAgDoq0SAWC01ML2eOpz0dG/UbNOJeUfBeAGhCEmwsEGQwVnf+aW4BJY5g9VPZLww5er8NU4UqMa4Tz+TYRZ4xkOmlLEAC57zKaFztWdneo5eP4dD+weKPCVlK7s6gdSnbvT4+LsRmIPsKOw/tRn2eWfVObd5Ny+tKPjp9rMVnh9fEpO2Bn6q82Mjzrlr9odAEC8zBKDqafcirSRFNMfX367fLxK8zgsLy53kGsDN9FQVV9+wM4bgdhf4zxhcd3IXVNS7o3OTINHb8j/htM8tYg/37jfeLRk50jBmGnjUiEM2wUp5mI3pk6h31C2XL4mSPezVhAmBS+budIlWzkPs6gQbrLToLXFsswkXEyrxVKejLVfJUaHB3DDwe+B42MR8ks13VjffNZUg2zPHVcQ6s8DlVm2GcgwLJMaFRAe3aUU0LIt//C/eH0PFa6LydL0nstrQSdBzRPhi5ipi8z0qoNCWScBRvJhyLbtpFOIXC6FQOOkuC6i4j0/B2nYgWKKifWBMtRwHuso74TfL6FZyKEivDBPYzPrkEYJf1rwBH9GsLGEqb1Nt9jHtJpm+lowSy/nQWTHpX7B1OJQswdJF8yaYUXUdLEMdjc3tkHbQ/dYBqxifKkqIi+WzkpQKlcOFfHdKMbM/4hw6JG5SJX7u1x/GYxzQIM+nlYLsj1NOjfUeqqIP0asfbqYLho0LfILR5L5fJ10ufc5Qx36E/ReDMMALS0IsToIajhz4diocnTcpKTDhVcjDqjCWjo65oMeD/3BI32AL0ior7jZpGNFc/m/ssKAv2P7OemORnXAbUlQZGEAhVO3WtvLyCOVOP7CM6ZvyMGnZ1Vki5ykwXYscj0bJwUvAaTlOaU/8H9AZnaiKBzuER6Zbi0VCyOQZ32rmBH7nl6GLvrshr+kDCO8yrr9E5DOAeTLs/ZgwLgCY4LH2b9YsmBwc2OoZoP2FuRYwEPyrAicFXcaqVP1DbMW0EQvAxIkWXk9Agp+XVbSE8irC2P2tfCnPmIekJsUghnF+1CBR4gR5QGNTpwTCF36+b+PLY5qV+9MzqMXVrviqkY7YHLEMjUDS3xSZxwtn45PYmTDn5frHB96DpjkZtgCeZHnco3G+5ucm3wiQrhGQJEhECDVP79mBpEiRVCzkIwOsFBU+FyAG0vO110dyMHFDmpMf0QFSvZtiNM/j4knwrakra6EzmiJeKNIt6xqerHC3eCw54EIvSB5Kb2RUg4s4lH7J8fiZeUVmFXpofeo+ZPyKvqf7I22O3UAu9IgtL5+xJHdaramrpNs2SWww4ET2CavfEzPG82pvPmbs0CBZ8LbrmfHgZDIzr0kK0D7b8RXQbiD/+FUOiSqz3VSiKEYbvB1iY5hwK4XKB23gCFIPfFct5toAhkoQKnWfVgMBXoYiYeQ5eqPa67XcVFefm00IfuRGueLnewwGbAIG5yzrCrkxyjjQ+90DAKxbUC1kzrdhTKAFZ6UD20IOhBF+YMPujjc52YDiiagi2hr9oSJewVzp4sl0SQ8NFyrlrN9NXeDRKdG2k3aza3qJWhdnA4rc9VRfcPGwrJ/YdAerP2SlFGKdgpvMCIrHJjdNF/v6MN1lylxqES3oSU1Kea5WGKEs6wETV3JxXVhTZhqlTJlsOyQaPZ5+4bcy6Ps4rRxVFIEN2kXCVrdsyUK2/5Zh5y0IhaqdDrPCJU0OX8/IM/EMHBumt92szTs4t+pyhqm7cY72JI6j58Z6Gweg+WEISd3gQ4ZEwvBUPlvmGSdtEKXVuR248d/3hqJFVkAt+/ykpZ8/yAZKzCcddVSLV97FPDJOYgE/f/G/XvSWIw02DT1dTV9auUtrKDetF4a8yArTtD4qZQG8IH8qnnZNDH81mIGEqRKdgljlAVmtdDR6LB6r26y+x9K9mn8M/2XPE3jkpKGeKynT2i8usZQronJtEj8RYgfwYGZReiDvQKJufgctxQ3l48fw+lwY2w6z7j0gC/34N9INjuRvGxZJgaa/SdT7ZkVWUdzjPLMgDnxnKhmcUO6jwB90/bbPw21zkp7h+r8yhwcPOuAnwJgHA4Gn7B+A1K7Rir5ndyvfmdgon/vX1L/9f/rF7sQIgJbk6/y4S0VOaGcjcHY2pUvPx2qS9LjCOqKEIRqTBYAhfDgTKEDLIZmbALxsl4kzCNRi1TrTeefwm09d4cVsPY7po8AMcQN1yqnmh4Vh0Kc7KyOuVOD2wGBQuxJEeVT1C8jyNAMR1VZBxWAh4oBZuI+2ikc+XMFT+cgKvDaZxYHjKRxbQvtSn0vNW1eQOgt/G9WsfptNvTzdYiZIJLwDMEpTIpmp7q0CmJaO5aa8UK20traeah3Mja+GVs8enGO+jh2vnKtHpRk9GwP7ehtYeaZTCIM8klKDCDg3Fph3Ej2tm786nmQ++HIu0GmoKxvlPvY1IuTTcivBpnrnhP57JE4f7pRPeKbMmXqB7CXb2GMiuJGzdPzv4n2Zn9ZhwDx8N1d0kD+6j+71ruIFIg82dh9nusEN+gt9iqj6t/3E880E4oPtdUI+AgwuKdIFvfqnFis7w6zRq1MUeHHbNjQz+zoT98LjXifanPZgl8l8NUe46XMCxyWfGLhKeKEhptohKmBJV3SZsTqzy0d0d/mFghz37XdMGCTIs4lSat6rM3TAY3pTNWhJ/uRVAJa9M9M2iCRI1GDE1VyPz1yowCZ0E5XEyK1sXDh2GNcuVOHX4x9JQH5X6Z7vlSumjDhWRc/PIIpz51Z9ZXG0fRVEqfAKTo4jq0Vbc+W8LuG1+cZaQsCJCEcoGiZ1pgQJOYi8ywNnxe7GlKGWCBDKYXetVnSABvxng2GrY+frd1K6HFF1UJMztpvyxF/eqWqn9WAYViTA28kqMBSNXIpAPx1c/FJKq1cKQMcfMCrXRAkSbusJE50omQeQ4JLATfvV3SfYxNEVImJ9rvbLupHpT7VTaxJd+baqY+WO+4r+LZGIvluUiDdiVK9WZ+bQh3u0at6MFUR9riuXJTOfgA88ibFeYJCVYtgdNvONlQHSGnIQQa02LbgB2P1CW1HQB2dp/ZBlviU+55Yt2DN9GOqiVDopkPd44hb0EfGx51hW4VHQRbi5RAkQs7JtivdcIKAILpgZBgJCUrNb0ZCYibG/tzlGjH+uzmUGIkjq/NpwD7e/AhjDBGPjDNnnV7jeYm+rYHug9YSWHDuGsay0zEEwUnZ5/XywTLha3wMc9EJy0O2GZpxJdntYTmSxY3U9kGANEktR98kQKVgYigkLrtzNhERB5ezGmReUMXz34YoFxjoO7QAwHPeR5kyYYMpjSwx8fDtMA/ENmZnFnbP0qmzc9rEOVFevjz+7Zhew6ZxTd0Gycha2ssyA2XHNs5HtcVo8DGug7S/pSG477NW66Mex5ioqObZFyNYdkwf0GRlTzqhje5R6gPoA2TEJk7i/0T5LX/w5dHgF7bUJvC6WJe6BdlZL5uOdrWwSe9yB9/LK5mwsI0j/978jx6wOrCpqVpEUqv3stCSshjQU6mZXQI6r1r/vSGHQNPly0AbU9q9H5d3VY1Fu96beSYQw3r94SoxvmJEo1nQeDkXD1tJ4irwb3enGMjfjyWMgzj2SxPkUX1QRpOl6T1hF1aGKi5QRMdQxKU603c3FYTlBKwle36aWsgvsB2Ht060JXjEe89wWJ+fOWqynXUg0VNZieZmDsRs+EYMQrUt/tgySqX+klh7KQgNINv3Yc+m6TaZUQo4FsPrxUuJLZBhtzg4RlVrAZApDpO3fssh2X/KSI0u9HjA359HGhldL5m+65+qsFd8Wt4lHqsb+u8Yxa34pylkanhOt662I2Kzwtlg/3np/zLnbxNhZ6mJLpkTBdgJese+/lTvN8mOb20wsqPmnZ1NLnoCc0wdVAdcwxeF5lL2ps3kffhYmfWJFeMqpMqCNwvAh9e4FpdS1MofxPk6GnfRmLS7GcYNsHZtsaAUe2WFkVknPCn/lgSXBvUklRGOkfCwt7bLgFd7v8OOa/o0JbjEOXCmR7zWg7p84rWEuYWvZzpLV/9k5yQeReWJl3Ojgb5t/YeyQbdeH31INIJMc2l2wka86m05QvlTbXqj1VTzNuomalDEQ0mooRQDeKK66EIOUekgV/wrj6cybMQq/2fDRcKumU1XP0Daj+ocvbgJTRYTRTwa77SmY96xzk86BthTFyYR6+5u85KJHjNjkVjqJ8/ifB3t0tzTwAMonR+Cw4ag0iFXpmu1i8zBg12ISDHhwgCkpL7hDLV3vuTV3/bDZbTzxxjQFvPltjQrHLIXSm7yLk8cGKdaxOYpntjH/JfvdLkbmuqLJxVC9TP+P5L4PGDEr83UDkSxr3+c//TmyNp1fpHhAuU4Vxiz0S3uoPzklus/FKVGSGs/iACsK6Nxkohs5F+IimLwVUFmtvyNd/Sadl6Vy/niiVvrKl2mHWCVoow9pWB0efo/G2soyXhvOzDRt/SxRZRzpgg89IaDVoOiaHlSsWGlxnyU6F3Xw0GUGxJInGti8nfyPRl30idqbU+EQL2KfD7ihEAZEFioJeFsAm0ltmnWYHs3cTq7bkyVppY5MH7hXoKswx8YBJ8vWFnH/5327O2Fhgjd+y4YYTw3ZTM3xzXXcSz9Nv2Kaic4MWDmYNLIKlSUVoKauAhz+kd3hlep+DPvTyke0kdHD/80tOElpVItkE5QEsQOTTRHppPqy8H5jMG0ZRiLjX2w7BHM5Cgj/PTqgh83ZU6rZiLlTodMJpSC5xSU6cqzIv6o2/4ouNY5xnnKFxin488Ffw5reVRER46byl7ZDrmk0TkKVMizlil9CMSSe6NdPyvab3daVmuA7ZqPZfo5CYP1kOwh4BHM23Tghc7bnFBS7Tejrrdmoke9PxBUzAvLhLxrpd7h5spxUcA+fID7jXqthQJHtQDAyumV1KQxrmkzy9yR2uLmfDRsV2FrAB2qTFF2vEHmzLqkK0fctyKbo7feqguAKQffP9f80cvJDpsnJ1vm5SzhMxAK6Vl7Dg7YP/fgVYesF13Y4DaHZMxH9X4NG+nzvIuFeNdmVasdE9fkmwyrI2nRfr+e6G0RxzI+UTQq9SyKRplDRQK+Dkpn422VxTN5xifvgpYjd36N2UxWVy9L7HLBlspxcCjEfaDBNfWvf0uLcwU9vr2Z93Ex1h8RPYFTP78XI7JycGjg73qzFsncYBVPQ4k/EUxwxrTRXr5anQknHnSpc1/XpthCrpJvwxgzcr8KhF3hfzm4M1q4G1QJ2dSfm3he0QbQPwytg+yi7MF+JjKTUiM1eU6Yt/wgi6lrBZQig9eVdjdflhabspyse1vTeOgIeXZyhRhuby3anbuS0HKEu7pgOb3or+CytfRh0wjQRCrtfK3rnivMBnkf/7r76+YU8FcDzAkfBHTagrPhRDFwQOjWcU3rzvbHqCosLqZrqlvZa154FiqVFBO/jbKfvfF8U+qBJ893Ye4l+8nWI0XOopk1Zfr/FattSnRUzqbKUsO/r8Kgqv448tkc3F1tqEhUic8kQJm7eeXwGA25ZT5EkzelLS2Kn1fOgSDDGELM0W3h2Jk/PpUmri4sh1UHvJEUydiONIjfo/EsMSIFHP7crPAEJltaDCKd+kkluAiEnCXp5Cdf5kqhyueHj6HbWhDyAR0i5Nn7/RQ1HbW5r4D7VyXdoOu4T48sYyWoN0m9s9FdLjqreFxExL15K9gGRWLKO75nD8pDmG70l5ERAtGix2GTttCRKmICpfG9PL0mSGuxG7Grqc77UvnOdFIXiHmMI6svou3P8SH8kHQBz1FCpiERKPikzayW2quyeWptqml6F44UrRbM329ix+4Y3iU3CrX8O1IRT9/DpJ/WFMXqraZlhr/eBsURUJpb5egR0QalDY9Eb6a95y0e9RMjpWOD1wzJe7hZliubcBpvTLQMz/8a+Glc1kN9MsBr3sJj7ddZiQX3QA1yYJu+GSV1Wxah5aws+XCDn2IkeKRWFceCyCgWQoOk1dPHUsU7WVvJdmioFyi92rxf14rrlUTWaI9xhL/0e5uIj3kGm+9vz38ZMiDANWDc399R/gawuofspGSLInh7GO2vWC4qttQHRBC+mxEZxX4A+5iQ7uYST7AesA6osgzTt+XcpV6mnFO9VYpcmwkDJXZvbz2MdtvnCXwIEcXPR3BXKmF/BTmOlFzv/cPr1mA0TCSfYEFjAvljqFM7EWtvIKXRQ8RrsgbZg+zxh7hvXn1Nvlxc+Aj0nK0pjMkLCGmHp9cnj+KmU2Ih8XeOaghunLP5bKgftQSFUKS5kpVCeqtlS6ysnu51WVuQk8fwJ0xC/cX20WBdhHpuvljfHfjoZLbwrAWZXr+pKebJ53kupRGiwV7NIOQmnKXH7jcdHi68cTK+tVu9+PL2BOduPsa+hAwqlWNDvr/yVFuwLrdYCVkx8E8xkI8XpFuE7lX5kZVOhzzi3pV48JZazuJL5avWhMG1k/XhbvaNJWO3UrdRlct3TGOQ4+uhXqV3ufhgblx6nO9iUyCuxHOrahlOfemqT6Llqt8rjstoteAsn8B3qjPm8MtUcTVMMzqW/J+ESECi8TQWiUI7tJqVJ6GQppiAQy5n61CbtxiVODkRqbCsGrg0GX1n4kT2tCRsjBpp10IngyeNP/SSIu76WaW7GWO4eKTQuAukr0OjWVub5KUuwTcI7xb+q0HkWx94yS45ifpsfDnak/8ZHTA/bKJgcpsZXvp3wKsgll8CQM8tOOhXwX14oE7po3o/a5WA7hi7oA4K/Wix8oRZCL11gNl4FQVdtXbkS8kgXnh/JjatVUikDSX/gfyxOJSdLFwIEgwmJHJdD0coUVeW+I3XkjChRPnNulN0ve1/cG81sf6ZIBmfa43GOxTfAYhFQ8i4EGKOcaem+mFnfcTyXtVd1u/0cFsWRktWKGYk2f1ESZZjxHCXVdTviivTG0KjUa+Sn4kYPHFBmkmN1wZgRGtvIEdvd9ZN8PNax1e+QrYlujCzf0EYkr6Ytqv6IajoekcPZw9dnOnhQDRgSN6pVTCNbx9wnEPVNxd2/a27o1NzlPWdkE7t3gWU882fgsqvHz7br/mrTd3QMOMsDU8L54DTh4OCbTMZYX+LhYGoGH2bIvk0DeS8P9qz2gzm3mt8UCVUW2bf2wdzVH8+0P7gGbpjOOytNWlNIm2Kx+tEj5w7TUpGRq6EfuJ93O9yVzZ7gXI2AXJ3gqxl/Sqwv/WVO/NuHyYhKE6ZXfiDOdqX2Dp5VWPrjyHenEXWN4LEncVJodF2zJzsLCnOkJ7qaNvhIMUh5d8ci9n/cmRGOSHDJTqMViIPjoRE8cD8yN4IR4in/N9ZsLf/CkyWxqVfLaU7CjZJuPqeEcx4W1d7i7dG+vIXY46JrsYhNFZF5eLmeauyCfWilGxtfbC4nXWDtxdEsEpR3e7wAvIQBbqLg26mctHLLjulOnhZPO63GysiuVbprur4+zbuRl/8adOT6yd6O3VPhi5iQghkQVvTf4OllRMYJfPO7Iw2ZASnSnsFp4lUccpIN9snTKPumZWis67+pk5eOWW6Dykx+W+aleTrJ9iIcZ/95L99Lbt/9NZB+DgijJp+rZuZzyhxFVrNAgMWgolyoCRfYTduu9CRUtJIkRingOojg2f1nXvigO8ylN/AJLlzQgEDZ6+KMQhZ5L2/Cm0/iLGPBfOZqBe5hX7lAhWSLx+BjPIb5sCRIQuNXLKnTQHXoMmRR0YCNbZYBZaqEfz8PnH2MR1Q90uIJzrG9ttCFjo0azeexc1v3+27XkO6fpftajBCX8/fP8Rg6MvjIh0phkrud8En2051tsj8ey9SU87yAjGehstamALgI2lmZ66SmxoyQhLJAiojNGAhXu5IaSBlNHsaIjHCHEEEC0l+nx7M0PDDDsFMrXyxR6p/HQPAjMwR2z7H1IVqdIIBhyBh5CpIF55eri2LO7n1sv2L8j4eKsrghQ+pkSPSaAul90wkXNBGCzrgl6lEcrq+9SU7OgiiM6+tUmuVDgXzoWNR9MtHw5AemcJvUetrnl6tpc+UOF6QD6ETuNXnG3Y7kHLS+dY4eQQd34LeIv8iCepEnYRbIST3r5VNJ6132HX3JVuSEd1SNSULIUeXfGQpMJCuVgSwF6/xtnrB1az9jTslSg3zoWAPpWMPKOz0sTp6y5ESYqBHFf28gRqyaGIhXwaKUwUATnY7RQ9tdI5jaJV9/A8ZoWWeX/g6jgTLieMjpkPsFT7DqWXce32Hj87KQmfHn/yoJkdI7AH84+izQB0laXYoYSizupqblGJ/4D7oXDd9sP3me/RrLE3XVwvocI1elOphbL+v9GdSFlXAHOfCourLsNXAnPx1ZRJmQwkrIibjgksP6gTudlh2tvjSbUFJa9peY5gPHMFsD178q8B/5EUmiuAZQAItSLZ2XtBBjHbUDnSAtT0G+H7mwct3/AjmHR5qcmMFKkoOh8/mnEVIqeJ/l9Kp3+WxeW6CCKCeMyxz+g5Ft+4y8K/9lm2p64CeXrNkOmRRtJGWbajFg5g75tDxbHefBWFoV86/k5uv/uv/iVuUZcbdPOwtw0E/xdPrct63qDoBFJ2DSVK9JQcIzR7itJF5/u48OJ1sltSgxedie81OITAtBDwASND0Y/owP8//QeNqeUWO3J5fOzYsUS4g7bTLmOek51KVAJzwTEuccAL/AjA14fJ6qas9LYYWRKhrNQTjJ8qYoGo+oPkmsIKBWZ+z7HIV+uRB5oqJ8b0f1UfiQmASqffLd4fdIZRMaTA0Z/v49hf5V3LYVVdddsIeS1K9PBOziDW06FdrESguVl1a7mKkg/XGjP0zQ31Y/0zWXymvrsGeNCOib5y7s7TPNke++02N1Rm7lC/Jgr9CBasB9y4rm4Q6oGStcvtroOuO7CL1bBtfF6/YFoH1ktvjUTufpfdVzmxyUmgodmXCovxxJjLKeUOaPhzahNa0HxVQuYr/2eZOXtLXVLX+JCBL3OcFJ3v8HoWJo7pR/r/M22SOq0dVs5UPebE68Hci6mtCsUen0oZbeYkkfxI1ymC5mI/fjPWxbVGfCuhpglL1e0CTyJkvmCyYzH7UHd22qS00VOeLmNzZMx1UxdRDEEwAp8FHtOAW6YRBHUAySsz12m5wuy96lvIuAYC/4g4rTzCt6zPHVDl84Rs6g1V8DdbjCPupsHEaY3vK9lOQmBaCYnhAvEymmtmPYQTSx17VT7Xqegciy2gkOnGc0eJTHdIPYF7+MQz8YDWhARbdUm06uh5GojaG4RChzet92/tCh2wvyNi0JDyTDCizrPtgguQnZOvBehel3y5ZldxdIXBvgnsziFFhutfXrGjlyu+bAuSeN64cnkyLPD2U+S89xOtJtfezt7gjFNzuwIkCkbZigpvOfq+YyXUrv9ongUyW55YmvY8jwhMVkFeNet3KzdNF6RwXQp/immBFdsJpdfhxJYVMdxryt48PMrewSE19Vhno2v1BKBecY3xPvwD+lI0ojh/KbMoj3qjSxztPDNr39dLtNrqbLagtwiyQOmaKU7v12EZJ5V68poDHGFyD+9Q7Bsvc0rGv5MVjlyrGEuLWn7tmrzJ5HSQ2NCQvQ/rxv49zkEDCipbkZWJ137gNQkU50PyekOx51yLZgpw5eS7yDz5LuYmWF+tnDcTjknfnCT5bZSID79nEQNCdXwBnrEY9cGE+5kLlNF480XukRxv+SFa6iPe2Ip/VZe0QK7/SYQ2JnhmZTMutGA3iBnzfaQTBjXjP0bbBrhTe39Mb6G8qucJCNJN7QKYROxDL224MuU7pXvbRcsqJYM1uC599Q4S92ImIigLSOvv/ygqYSzd45wwq4Iqrxhje0v4pymsZ/LNgrVSoehWX89gT7J6qG88+q3IEMY09wsyuqBqY3Y/7zlogpkhepslVl/8gU1YG/nfIDF2/BBRTrafVz1/1LnwQ84d3id3lCs0mZX4ktmHIBUxGGIEcPnFE6Lzfl17DZCo8e5E/uQlk45dWN3nltTHqrcKPFm1CUDftOaW8R4pJ8GLcSyNVIiX8FOY8OGP2cg9BmeIDsJfIHLtEL7dUvY0/dEVOh8Jsk4lAOeIud2VQgZuhaqtE64eDtmPjxnuq6OeqPxjdk2g3a20hmTHABO3i0fvkqcE0Szh9I+I/b+4BmOSS6cq/w0MiVcCbG5Ej5flxMK6ZspUuvEeq2IWhg6E9H+zF3x87HcfjQGC+rweXCkODXDRX7h0U+1xBxAUEScEF1rwvk+L1Bv0cjec87zxGJCAq4/rUv0O1p0J/O8+7RcoObOl5KQX4Vu26PTLIicKGh77zLb/pXIn8J0hzO+UniQT3TEcdeW30W3qD5b1Zrb8WkQmVi4YcGkCcGL64M6PJxLRIKZiIgCG81OQjtmo4E01tPACi1ZNb7GXubHkHi40fYtat8E89Oc+rq4BuPnp/UsRu3c31Te5wWyGZcYNjzY6jtN1RURjfZ/Ka9CLfcrtcTjBel4yMxHzkNB/v3F+/5Liwpavt80OQZXPBfSG4eV1h0iVB1myFoxLiAZnYZuXH+d7XU59RNLRpCvynns4UXP2uwUFwpy3td/akCtYq1/LBLEPlf4izeVgNgcQAwpBHNeJlCvOaBTa4XTDo/+5t7btmnEQI5BNUGNbsD3z2YMYkA9UJHCWArAMcDl7SozPP++eGzuSsZfUgAguWV7rfh75gKG3MTDj4uOwy4FW4gbdlL5plxe9nVfF/oFvSmNPuq77bvdK8N2uIr0bdwwswZwBy6sSHF844NuJp70Zpwi1zqP/WQIpdLhaHbffFkkyfOhyLJdkGSDgJuP6RGCyS8E0xzXfntoICQhvxpLxS54Hr8hvZnbbTRJ+DI6C9EKW00iMpWimM6S86SEvGmIZG2xRWUfwznqWHZvRMQX4wVe/bso729fr7INkfMG3cHzZc/k6eEpr5xbqcT7J4XAPLlv/8nK4jo7p9n1J3AcuYmBNn4y6jLM0vvuLsYaFAkMrtew8tQmsZSgvkiUrCqDN8aS5JRdzbTMsNPy8QUoceNPZmXBiAptZH0lDVb3OfTvih0c2mHwBReFry7Bn8CicU0bDJoYdnqluG9tfCdTbx2M4pTsbWCGt+2lfXG64wU3zwA5obhaxpNRHUB7X6+7ycg9iMMF9ei7MTk/4h2tViP2uGHf0iojiNj+ZXKkHHg+QYVYOa8n5SeB7uzvFU/tBnxUe1V96j7s+spC9I/Jj0lnk62qST2/ZHQ3/jAg4UqePitb0TMx4PrPMV28B6zwgn1GxYxZt+FpzXJo2Fhup0xKcovmBZgylP0Ti1HOErzgk28ILVwmY4rSwdFCLTeHRjyeA+k/qmBjSDpyn9yIjJHyYw2KUqK2EFHhvjnBDDHI2EuIKFslioXWeaQ2UGCRIKNWnavulmTSm2FP7qVkioqaWco+Xy+EfmMVHbfv2NblI3udpegPj3DcVR9vNdip9RE3H4RLyTh9TXcmC5yRnvBX0efI+eSOqec/smPXJR0kBlv2r3CEsvTvUmp3ha+nPJIjGY8lrcFyKFJkhEwJWzRLlIkwwLDq1H4k8PZe/C5aNavVC/AOl/UYpijr3Al625i4PIOZgt5P86yQOwCcDRAAZZao64wGat2EQ+yPZWjyw8XNyOA4NPgt7xK5zX4NTDgmXphM6pdPXzw1U4ssDbmfjvBc1eGN3e0bkj+JDytGSKbzNO9bsA/nu+aHBjPqZO7x/HR8GjEhalSLd3kWZqmiYR/HUbyEvJ44sKbYhlB+Ra83ZRv7KiV0OeNN+oB+Tn2U32MSDr9T6nvUU0ZBF9Gzj4vkyDuwoIoMeZCoHJXKg8v0MidRAii4+c5kWNHkcIJt4+fS2ckVBf90NO3Rpl3/F0tcqjb0qK/tOltRTKirRJCTHi/wRqbZrIKUbDWkfoStJDnU9yPMu1Oqm67WnE8zHjkzD3/9UHPRy2yADSLsJL5HijGPW//VRe4NgikAFcOWE1ChCLdwA4cUgT4tjqnOXVvsvAiiB557y0Cvv0/Wwt16EGTGl4NsDqwBmRr1PRT9EDmi6mfAgBbIy06ms8bberzMmgA3exS1hgcAVI2LO4SF8hoaTpaIWRrRGE6LpRZg2j1Agb1AhZuBebr6oyHbhnTw13izI3WVeamRRs54f3zjtet+kocJ+QgKqbo4QvC9PHXlElqquCnZ60utuoA6iSGAVRGPEZtIPGddgaWbEN7qG2thR8DVP1z1z9F+/mnzDlRrFVnKHqcBigP3UcBCRoPv70srS1xIz/7T+tPwzjIgWxRdV5h9wspAohNqeE36yCgPQBx9BJvA1lJ8zpoTifdCDzG82kCjKRSrn1YffAR0hlAGee/3zKhOFKLh53Q5XrRE50NFontJez2XeZaOSme7qgsg6SfjLpvfseI6OI4PE3zaPFm3z51w6070jW9C09BHP4cOvtEkqNT+yc9kFvO7M0rGz3ZDfJkTBTapgVv8Az3ne8a3w/bbRanUrEkBd9029w4x3ce8Cu3NLwyQ79k5SxcvtlecL0WMBBD2UOcqKEJs9mTvUP3dKANWFYjH8idPjIfah7yvNqLIi9XAGkPy/eSjGH5RSnpXW9CXyaPw+w4G5DzAnnOfHQ1npaBEMjpo2RnfdG249ZiFjHTchwZcQI82ZhBEnKexxZ4Xzitdha6n0q3jB2eKdvFw3E2/X9BBqlrknXJm1IUUDlyIZ5iUuhS5sXSRmyP/5epuwM30O5MeZcztO4CpKTYStJF6L+GC+LNOmPKylymBRNzDzV4pUYPQAbJ5SDX3bb+Z8L53DFMEJtWs6vd/z/QQEbFTlbT1bUz/EQioBrSeQRAw4kzkhH/2f3BLh24qmDteOFZfSrXNbiujlvNk9/NZVhe10Ol9PgVxY1Sx32Im/Sh0Aw2pqrsMxU6hKPg3oR0RxQA7Saf8DI9Ap0wL6plWu4LVyQ6XcwlTLw4gy37t23B6RjWzVQLXFDrMTkyhe+n1J0pWNBVTrOh2C6iv5Gtpz5ZmJRLwDXBGv0EtKEdVf+Fdo8yjtDvu8ynGBZi2P5zLzHPuOZuyPJmRvfr/4gv12fHdXxwyfQDkh1mrizAhLQB4A3fIwzOHK2eZCS6vYIAv20PI6x9dofW/PKztweL/lJ3Ej5Y5jQHl7FansWjrQqmANURaGJZx75OcWWJZjeBF1ae7pj/ihY4w3X7bAySOAY3TdIZ/JAHn0ajvQMN4/DTJqzFTTh4juGvH33HTebBLCO0Kdxbl8/eVWLOsjplTwgIUpSbBbx4CV98gcAUHJ7zM8Bc9xlX5IY8p3ue0V/VBwxMrAkZIoAxx38d+/VT9Xw4mismH6Di3HPk7xDUgF4UPtVXX75yugCOsJPPjHELPvzcDSMtN7lqAuimceh7rhJ9Jx96uyAdEKjIaAqCiDIx2OGYJIgWd8UBxtQ5D7OXVnVm3tA4r8xNP5VsJwORjt1/7Tbf0HGReA7sYxpV5cspBKrgrpVYt0qWGhaXU/+yVnSOdyLQUL9MaYoElmCI+nWikUxEmY6Yv35klvSDIH4mBxXlHtwFfqEPRThYFLn52R1qhuoyaUPNiUuhBKLvegyL+/PvGatqKqyU2gVkspjZCegQlvUBXThxGEp2BusHDeOyv9s1zKRET9x2UZnaOcYRn8Y88+p3/8VMAqrrPM1F+V/s90ptb9l8d24yG+z2zZVBBAVxWzC5/T9VoCO1RR404ou6cgwRmsSEt7XFvn1MEj1S3XRz/7zeWayWprzIzu9R0Qgz38nXxlovmRKrCjS9Oa4j93uC3ko1p0+h5F/fHaC181wZD43BxyL3laStB+Slpxi94Yeqp1GWjLNWEDJ4iu6sD48SadLlHRR2VbzV4oHScDN6y+/IRN+LKWtwZwxF7hhdDgnZkNUrVyU0YP48UzW93HipJLTmgc8281ITQpY68Phw8DAie/FxizTQ5sXrQjiFMVExDpkJ5/UIFQyaP9FRYDN+VEjiw6wUblWdJUDaCgyQlAf8j/7vBPmUA6r/S1f8bQUao6ZP/9yXv1N+q9HsEFeXKXYYliYI2n9XzbY4dLfV7tZxLsg2YzyD8nriGmD6pZXNTfGPxR29bbwxg+/xprMZgH4WnaRftwTl0cBLrvfOm4KrQfwDxCj1tMzCE46B93GiOvRps/Iqio1yd7T8BB7qShVuAMCRh6CDPzhdneOmkRevh6VAdRVowZk1DyN7nATmyReD7cuBmPEWO2ZptUR2IluPJMcmxDN5+443HW3f8Qw9XN73tGZeYSXrpiaefkknEM/tKZ0b5P4npc4wvdugPAbMa33xK6t8Rgxav5/bWGoaGbCtv+YXcNy5l4p1AGVD2x3gY+TLTGMzQrs+FUA89xjEb8Aqlrqch4HbfDrmKq7SJHTOHt/X+5O1tdV2q0uhmUF2BBMjSVYbglSM4o0ogmAcFjLdtPviTpdUD8gmC4CIwmbHqgdMtGqWJuE0T77H6Vkh4mEw+k5blrGxEULieIjT117/mOVRyaBqVk6Hvnk4ApwjpC0dIkhvAeOPvwlO9BRWUoUPwX7a470mw8DU5msTUZ77ZuuuyRj3iMohuhlWFbZmYSPQhM96FIVXPJ0TeXLiwekKxJIbzdKxQgqpxXm2ErBvQx0TYkv5WtmMjn5/JwWIEbqZ4PvvhoaG54gNmlnVi5w8mqVfvB3oiW/o5CmoWq7931u/T2shZ8pmlhMAK/ys09PPTEqoaLy9ht++MfSv1V5I5OjvNIm8yKs/aXB58QUMBSDW6vTf33MGN9/PvXYdgbZ5n6FrPZlLK8spLE9Ndv3FsDfIt4ckOGN2XyFL4vVaKkaZxX/LECDXH8JD3n6EKMIyuJ0FPTNK8Mgzdr0C6cdsQqauBvyGaFy2eyWmpq0yEOisbrK575AUdGqSitUJcS3zZjM34YAAzb95DZ+SKWIlNNuclAkZnd1s1henvhxEy6hNtyWrkawxpQDhM6L3SZ1zc8G5DHwCzQQ8PjxrSLn2FDznotES4wwoygKrRmVDX2EwtOtto8SklfGXegFu8kPr6xGwbYfeDl+dYmT7V/nZgk6yEroanIAst+osReYwEfAXyJV474xWF7tFFq1md677BNr6i6CChEtexYlTBG8/uCAfMNd52jencNyQoJTAAp4Sipz3dO0ElQ5q9mnmjQ0x8F8Dyt6xQUmQfu9j2M42CeELOJTzA14ThcelZxkELxVw2C8w5fyu/LS1lfEll1ILMNRbJ/gmDt4l3QsmuAtdCvzN2N7N2R7ZOoo3uCJ7In8VGivsvgedpHmmw97H5mex83jz8mBWnytADCgs76i8Hcm8vWCgP0joStyZjmeF6Vxl6Psf9iLIGEfxBp6W9+LFRMsNlXKGNW/lCKzomCill5if7anhHQ1dF+/reRnPqiI8IY2CfuusoyQ5j1Pbu1h525htwuz+uLdNCfR1NXI/EK4HfpkJWhhLjs0mzBcsXbtc4ONGZnY1zBfdMY3g9+4VHLAgQPZjNIe5BErmHFWlxOeVD9cErcIoR3l+7xqzkVdTZGwFWn59ywH6Vt4qzDAoEHYAQN9jkeraJhPMOe3HzeHxD0iiFzL3HPV/a3IbhFAzVZ+Ix0/go9EFsy1lI3UPBsrUKVTFYJxPJpF4yjlOLPlR/HCCprGchAPoDgfMU+kgLJ3IfyF5Z0jz5ajIsWb9hJmhS+DEX3up8LIJG/gaaDYAbSuepqV7kmGPFl8HSdQmgxviLDVVJR3+hcR00ZefZ0vc/YJryQQjeYqckd8K9mFitd2aptLOEC8LjO0Tf6zIhoElmiHCvDmWSZub5H9+rzBbXcqQaviiyOCkzfopgDfMNP/BzbnWOLRwUPIg0KeApD4lvihw0Fa/KMktkUfgnlkCHJaLrtbxXb2IEabI5dqlP4UDkQrFNiI/2LHU0+aQ2uf9h5pFDosDeLiBz0L+BNfKr7lDsJ9v0FUUsSPmm3s/HNyeU+Lucjb/cStwCL9p/mAKLLtG1oLZQBlvCtnVmAFvwQj1vo6327oXatb6y5mKcklPtNZ4X9zEhy99c5bSeG3YlD2/h4ssHSbblf95wJs2MHGyVnl9MS9Kk4CH2EBs3ByAcqIll3eQXaaO9JpVAJj6ueAGdOSFAfzZy1XsBzWunY9Vp8Ll0mE9NCxsJZbHuof1A+1GH/1DrhB7wz0FsYccMSJIS5wZsekvmQJ+P9db9X1Vl6ynlIKdwGPJiLMNVe1c/j5PCfYVRd27AV1UfEF6s/ZRzysaTV1dmMJv+WayqKqQ67KDvNLhMCk1lhVWZeBusKg32AFWNRz7n5N8DZ8RVCdGsUzGXMsI6xriquWMp29/BLK89ZUp7uw92NJTqBEL1Pvf+Uif2juXO08G/WhglXRFqBRjQ6hdCjX9V7pGhIsVDRMEeXIS/HdoFRAYIqH9EdXLtNgIwFTLUczZ1TQYYjBzsG6xYCSg9peuAcDIreRnB62KwVm3CElWVCTV/bT0nwa/qUpdQk0qrdlwpGrEVIFCyUToJADkyqhJObeMh4L4uxu9mBDDYf7EBdtwwvh5MwK6TxWo8lLGazwsjrEWH5mPa44Cp1LRJtclbaFcwlLI/qxWmbbMvl0bdEz8jTPEuGUGu82vNivka2V3WJAAqhjmlo3n+2mFYWI3Uc/SsatpdyZYp3+fpG+RVu6KYv2HcGpnDyGPrGfZaI55vas/smSw5Zl+d6usA8tsMBJBKNC7HDh2ZtYuneKOexiLKVETry5azK5pKE7DtLWWx5hD+p6T2gFzOxHpDaZ9PFUabME7fMe0zc2fCFmd3xB08K/xVwrs1XDQd8gHk1FkP2g3TxqF0sAc5ja1oOv2kksqebkE9zJG6+ajrfOUOFcGJJ/MPWuyxKzsTLjQPxJuDxk8U0o/seHZgvRtV7iflyJLoo8TdkgCIgFYXwI6M+HMh8zSzR4gkFEUkJlPEGYbx9PrEEHWSafVHtGtZ6aaeSYPCaU+2e/1YAVzfgf+7175c6Q2EoKI5WWDRLyT6n4ywDMqHl75/0RGRyrVe+y0pS1whcf+eNiej315bCGBz7AYfyo2qIjiWQUB1lxXy/8dD4WSNiIuXV109uaC/tcrWSdBs2NZvjgZnZkGk7zGFm+ms4dgGJgSP/H6++FgjVG+CrQR6VlgwHfVSd187Q8x3tajWdA+2Gz8vCT5G7tr0tyGrwTZzaAoZELuNXMkReU6f8MRWjQFFsAY1Vy82dtf6rwnSK2ZPoztFJ7ySL5eHRYjEoLRt5QiCPSQjbxntGbkgxoXN8bkb/nm6VRJEJS/d2a4ri6vQXjDfDGKqMu+FEuFf2xml7RWFskPTqxygMPqzhO5uv7pDUJdXpdCH+m/0AYS1KFzfQmvtsB9U9XJgMaHQX1NbmFASeEPnpq+de8hvam2EX4MQiVHKXaybRhLLoYWaMgPZJxFSQUUNKenyxhFh8FMPAzhAy7cvQpcTZtXD5XzMusDO4SEDlHYBFWJfEQRCbdPRiArnJr5czOXh2hY9ze4HSJfCuNnIS+n5V9PDQrwYBOg818bDcqEeMLtOmWy90Ir5s0QR4bI9k8BqE4VQ7Iwe1ZuodxrZuF5mtGzg7f4orXidBgK9D488YDDEKSvaLOQyYQcrvWh9TjnETi0/Pw5bfnNgodOGx7hkoa7lL/7meeFQFp2b/QLLJGfhIV3k6LO3ROmNPRLjwl+gigwIhssFORuchpefg7XPa41uQk3fGlEd2PfBLz42J1e697gX48Qu46AOil8kZ2QHVgxhO2OYLtqJtaqKdlOw4nrip6S5OcDIXsgB4hhsOxBrBx6a7KdhdIu0Jzq7LiFvpKd699NzeYhsYX9no624t/oto0l4wjsFH4UejL2A9vEKJmXAJCfmD3UuDmsIvABiccJSf6XaPMe0lDrsckrIDCci/z7UPBfdWxZYWBQWR6zfGf/GeBa77Y8DIfGsilM4slvtI/q7Z8TR7CIbhfxSYGVumtIMlDXw0V7WWDmgS/W9PDy7jU7Zc1qgNgjISs4D+EP+ZE+GxiBak5bBxusoPPmUns9BFl/E7sA5iTOJKZRZtMAzK2TPaQq4KZauc0eDhVyKZBDS3N1rrZcP9D3+JrMoQI5dY6QgrOYIeOObbHrDDQ5y8myUFyIjHpOgEz9vEJJHuLJkzOFytO8eZPQwVAUvOFTUNd9gib7EGQtBP7Vfand7GmCWYyjYc4pVs9Dh5WGRfdVChLO1pz9TvnlRJNWfW8sJfdBkfuxhAbI9qXPR6rvr2xwnU3oxBrcrqUnhn/JRF3xOH6OJLjvy83QxOvu1xH9L40n/FVMXeD7K2yCyQpA6Syo1F7nH9PvqjLjdH+IOyAC99Ml3SJt8z3/hwDjXP0gjCjPa2Ykobh/y10+Ye4ltFkuOPIwcd0tSVTL0Ezp4cN1UI3t4TMxO0QCzw7/gxF30M8o2SCnjFS+cy0a/xoHub21NUkzoFh7yZ38tZ9zb0K6l8JWM3XsDddPKODmHsNDlzmgOgKQRfGslWnHDLJgbUZejPqzriy63IWCtgXT3olqZvPW2+dlfzJ1PoFFFSPF+9dispGT03qoPvFY7hXsLZahHftbqwkKMgnNQFBYnJUNUayT8Hb6zYS7ZAEjXHovEAes2rqTNB7gsAYaVQJddPzmFwy5JhtVw2RUofjk397SDKMj1uvvwKhbBT8UdqFwjjjvwzHnFmqPtKH+yannXMbaimS4gqI3V4OTRKhCzK9Th2KWwfomQK+FZV/8l7jS5ZgfYycYfI0508Mv2E8J+YIxiXB8LrpXmdn/b/8kdllXcNKtk6hLjmbNhijAAcXSTQF5s49RhP8F7Gf23itOjLf8TINfB4I+QO7V+cK4zp4EhxPMxkLdnyDNigylZKtwT6faOdZ30nmQ0MJzXSpTkttD9w/ZDoZ5fznz0vKzPOBcMniqzDjh2GihOfG+6HZiOBEMtDHk2xcf1VV1njrDUQEPf/Pbgt/Ntru1E7bfCMX+OrEIB54U5uPrkt+aDHeG1oZbJaDOV4dYDAxcUDnmgvv5QmIIjT58TfiokrDs9q6PZUpFhPES+br4Dpnm771dh37ckP8qzOhv4rygzmUm3mvxPiE3LK/YhGUydA8UxnrA7pPV5Q4IND34pqE7a8oQB8weAh7gQu9eyRaU7Zw4CWOUCxz8mihY0aG/EUprRyQYptKeeU+7Uw7Un1utCRAEoZCRzJwyB2Pp7AKRZ3sIbha+xXNp7IqM4AgrJaahecih0VdUBrJJqsf9DXOjRMoimlkLW33EO+JrJJY2lET2dP7QmhX+IkyypPgjiEAWBCN5B+uCL3yAsMI4XyvRHAz/TxHeBxmCuTiwU9KfFqxvkQQRyZFiJvLqr2h34uB8iMouXMOhrI3J9L9dhLuvnif0KxoxC/BtZ/IfBpW0XNg5C4ozY6zkwkCVRaOgXozrf/zpg1yUdHqF595RfcQGRQx6FjPb2Jan5jDeugHOyonhdLkz6XdmLYf4fQUSY0jjyTXjlSxe2TsY131ZT5wZiherreNMgD2AjZm7Kxft2SPq8X+N+QyR61KtKCKeXe8AL6ti0vFe31u8B+jyQVVbm5DyaFtK7P3OvO+NfrDHOWoCyuFqf+7ElV8cW2fw51pS5rTOttcJMp4nobJEF0P5r4Xr2Je8wV7t6K3vcmA6Pu8XRa15SQMKhY8HWXcmcxTh66aMrgFo00Epjk+SXubj4SJM34RihUaOAsPHriF5sFj/LD9tulID/95I7TXRwevvzCYqe5eyxvYM9mdnL79SP7WDgYCIjP5gZBUlc5XZUw4VjznCkrE3EenwmF++URpBLz+ez9Pk4/Y98FDULOiB/J/Mk1FI1acPgAyDzAKN7nrlkvzmp+9TwNDbf3ORcSlLk7ZoQAC5hrNAwbvvU96nKgXA/HFDWT7GdblTITadZX5zfTfP7MyKDh6y1pbabiozfVJ9Lpvd/Teo5vIRPOWKJpySGVCum+PAZHa0E+Jz7rnFEezzx4xVA7lA/nsbaAZLWMMRhDhfpht3C3Vf7qoQ3J8ijF3VEb43Cn7E/8OhplRV99hGT2Br7808fuDraMt0CLPTWyPlubasV7u5L03J8Mo9BIiilWvxkan1WLgiesIfS6+NckTJ9i2klg8pG/MZNQlRv0YDDlYPfBOjf+MmM4x2TpuqNlVSz2YkR/gHo0Etin8GwmKRIYH4BuBOlurgp4zl60KgxSLCkZ+UVyLO3W/s5ynZWOE2d8sa2XgG56v9fQdD0ZYvU4BxKwCPFuS1OecvMlfqmLNj93KILESoduDmYxT6a9GXgBv54+wu2aDilaR4PalgNo+BPEFw9et94PGnmYpI1pg/XG770Wyk/csZpHMTmnhbfIFK0Yl8emSuLyhZKwiX3alDpxriRfBXbwRvXzBO6y/OiOEC+sC67nU8kW1Hd3FF1B43g1JbggtiAhghUADhm6dY8TMUCG4ooHEUnvBQ0mxB3sZAcIk0t+CPjFSwYjSkZYkwe+wW9TntX2MGcJumdp51LozB3cgQdZDW6zBUt+YScnF+sdgkjkiupPvmBB+U5rLWWu1+bkdnMo1AZgCJY0I16niAdydiOdqJsGQe5iV3F9VLeK94u0bYe0Jttz44QwbG0wlcDPzh9hvLxGzhwmSKsXcoa/Dowqc7IkUE5oYc3aSfiwkvqHG0x0wcMBRJvZuieHqSSyGV+rJ18QDGsgGAEvggDw41cuRtxG3XEfwnSsgbxZh10A/Az9MfrqVz3DAoBAK5irtAMkWnfzKbP+J5oqebLLlgBv6NXYrFjYAKdIcXsAlC9FKGY156wDVq4WLOXGVeDUgXDvGWW7CzYt9lyNzDTf/7Z80/nwJIf2iQrY6Guami/ccIL8pFGZBYDFXsW9pp0bebIYlsuBBPpVcAYmLAkA0IpEqBcb8GDM3UGh1EpfrCXitSGTPTCCLllrEl827d34P2MgRxT3fxv8oBgW0ZJfyPB3g62MLJEkFE2oZnRjkvdfO2sKVl8KEpdw1Vzce892yGRIj9ujvEZYsfmyQ9+qNiEJ2TShgzB5CZTvrGAfNePt1P3K7o/yLvYGcf1kc8Ted9ijTYirw47La6BxzR6Cy2WnVYZ0EY9qqx6/LX1I2tQvkkvi6olen2JzFbJ/unzCZ5HdDsP/GStKVlvjpSFfmJWWujxqoq2TVGQdIGrguGlPTJxt/vgfyq7/4rf5KtQ2nEa9U5gCKtxzrE8KtKnrYy9xfj3lM43R9KL+6MqPbw4F/G1cX7ulSRCD7sEF3nwyhehXAW5OBW6U2FjtEwjFrEhS1plhSSIjhkVBJO4AN5zp0EP/x9maOiB+QZnoSbYBLKbldQbteh1LRL5RQGM2sOjH/gzFKSZX3/B3JLHX3kusRyJ0Rz9lm2mFJy8sXPC0qmQM6tKWqsuY2qYhy7889vUWaIUAOvN03n+FQYUgoj7ib43jNo06tJUYO1lDd9bFHXhyV2V4hk+TtzIuZh2NK9CHoMk5ZooMRcw14c+J9fg6KTqobqH1GydLQbVAKy2f7zBgqglIvN6kUhQuE3Y/Al8FIpBf8hdvRh7vG2qAP3h9EI9mHa3oG9sjWYJDzOnZPfPyoXD738O7t2OaKcLf9duuRXWzbkIRscaPmKcLf98zCazQWaFGNcRjzbL9D+CRZSWhm0TTHP8E9iTA1JM7TK0Dn1dqHNFLtphSkrLMq0ZaoNWz2YMuFChwMYASbjTDgclestDB67oGRFVC2GEKPsrnejZA5FS/JnMQe5EjCAWH8UOXohxt3IgBdZZ7DO1bG47R5Heeh407aV8gxweB7b+WwP/7N7D9DsBjdPm2PQTEWibaDs6oC8RnBXcR1rgPSIUlNMs2Bv9SkPfAQhRmoqX5SW5Ddg1W4uyXVxMQNJusdT1Q/hOap4pXycKT4rzxBuTyDm3SAFXTDi9UXg8+604mC6wi2AkNhVD3ADQVU3+L51RFW22woTZrvNWu5twBTASo5ZXtGcP0/GCm0SZKnyeWnCqqFbEv9ZJlO3BcxBjlX1ZsmRDBSuGTpXoyrY628JSyNe0ZY+cInsQQNNWcIyEbxtzrz8I2tc5m58I4HuC3MVSRb3OVi/6RRtyfT98am+6n5ReUICDaULWMhTSDLIUhOak65QuAoFLZsji7rWjjeKfm1GTBpYHFFf3CgVH7yKvhYKfFpmx1tSDRsZv3JTMcmHk/t1n7zFACoOshhdrn9SZwp81UA0pdddgTc6YSiMRBULZivR5GI1K00Xo59c8FeTVJbMaQCuyi5CB1ZNNaQIiYxeKeLTOPXa4SM+RUpBHd0SMGkGk3Km2RdcYIBwQQhgLwvcivmzJzYwHlr7Ty6UBP5DGootzvtw3QnK+VIUKS1sNwOlpe/15zv1ow8/OcRcnWsloNd0R/X9eJZiJ6uu4lmtVaRc/i0EPx5N7FF9IRdWFNIa+UMueFN4FT0XhmcG3TfY6fSFT9crNuFD+sSl3HgivLGIjTj2Ac7EaZV1ckgd3Jd7J8Ul/kf/1ZDfDwbLzduui8jLZbSWuEMxGRM5VPNN6nJYP+c3VEazzbRR8fuggKJXP4vF7eU8EqVNReC1LOKK5EUJH/lUsQNy3Sd0QynH1kf+wPpewR4+2ZmCWXmkg0UBuU/kINNlrmp8l50l5q3dbS+MFDhzNQ1aqnVptczqK3AP1nKFKS3NzogJspl+I3A3p6HYA6NM7zN2T/F1YLkI/vpqHbBFeU8iPqPRqsAJj7W/IZ5O9kGd8aKGAv3sDYDZinh6pgKF5WiLtSgAZ0aCxswkvJjtyFOOepIxzMMKvfzaQO9oqo5MyH2GXF1cREDc8mkchTo1G4Ao3px85eraAp6UuMaVbulR9ZqI20R727XnCOPTDQE0FneQBwEAKKiPhtQJrdsDIK1sqsyv8r4lyecYod3JJaL2herSYhzlKOWyL1rvsuQhS3ZA+PTxjxz4MUJFWtfc9l0i2da9K/0GuX56kEVEpWwvhWgJjcmUgo4AkcPHSw9w+HCpHJsqw1l2P8nKpsKRMu50tOaHtgRQ72poDPPsuPgCgTMTwCjqPf/lQNUMvL7s3Rp4NSRUFNQ8OBjUxUotMik8v3mtXWUTGvuFZTB4ox3xMF9p0nC7HWRUq61GS98ZCWnuTfT4sM1ISvLusFca5mTlNZ2ASKZr2txiezzHF793bQWee+IhiVUA31ylIgEg4cvLQb4gaQsrqNT8t9UnOTSK/eZTRbbiErgsnL4YVA6SaA0TYwzt2YJ/Vb4TKVrALXxu6XnookL58fq6T65KhW4UmUg2+KnmcL4xLu7pFe4zuiJcyi+y8zD4J3rxbZhbZ6rDuvCF6RyMcf7pxWO2Z0irreKqgO6JwRuZyi/rgIOhpNfBOL4Md+bN8XPWBmLS5ESjqlprClddu5jYznj0vZO+uC4KqDjxoh6D09wZjKAjU9K5YwGOOD7UHJn0gzMst/toGKeaOssY7ylGET0cv8CjyG3BbO8VOr0dumPIJoMdkE91lQlF1aNJXSWCcSIY6rfc1owGw4Lqj1pLGS3dlpaEk8QBsoTWxumK8/z0yyNgkFKhcf3vmUY+zLP9MvAH0SK+XzNqMpT7tUUlYex7kPrL9SbcyilJ++Fe6/8it6JlKKdo4Khoe2UEEnByNyZpkV2rmb9GKAmX2yw7whtziMJpum+miXRVg6bcLxtWkpt0km2LfzaJVkafYthJFfy2QjsojEhkyNte1Yzo7gwcZmepm9YcyuEyjyPPV9Tf46Xc8duowB7149DD3BDyOrxqS1YOl91lofrJeS3QsKgH7tCwNhQRIt86IS9Plmi5lqfFLDRKoBHU0xKIA0CUAQDwb6bau6qgf3b8lHPZfhrxgSHZ82rn3cRjydQu7suslVlgxCH5E2H/p17PaPZJWfPH9wXiG9Kgfad0JbL4eKWIb+9tRO0K9NyTW5vcT34E8QpiHIXo6Ai5n7u5P+CtdQV06DtytdRHMB9+zoTVwrSNEWlCja0PIdwY2SKUYDoc0+6q3rAJhYkppe4KV0zmIx+rryy3nvJ+UiMRiyjfMz4bjH7Ubcb+Oog8nM+jeMJvsNlxUZpJRHW/QsqMksSwGWXRrNi7lDKcT53YSdeKt1UHDymt4tzEtgGENKmTmq26YRWRhfnQPU4Hkzd6BNAnhDa/9aFR4Tuf0ldoSFlcPCOEGe6p2XRDZBUFxK3zO21wgBPUh8mEjhRHp7S7vIYYtv2A7j9JIbcVgNByB5fmr/siVK2eNCMtFmYVFqOk+Gr15WlJLheycTNAJT+Iq61oBEZU87HI5TfTfn6BE17XDchUpyO0AOTqFEalbr86iOUhv0FZD2TC0JZFYNA3IlDmhrnUhNgD9GwrqR0Lpe7IgO9rzQLfyVbZRUu6VXGtHEeJouSR+YfXakJBcooNs5UB2SPXMXSFX+nOJd+r760TIdCytBlc7+VWU4UyL2DY/69I/tgvYRmvmNr8aHdz55Zl41Sf2AgCs/sYlWav+lPhhHzijBFk4Rx1iVtCuBD5n2dBM/rY1Vcp3sYaEseHFKl9oQmGxcZQ+glw14JDiy+0Wl87OlG9oqh+W+Vd4jh/NKYY3JcR4hFjDERkS4m89WGIvWp1gO9TBJTZgjHh0jKJF/68NaIYGgzhjCv9wn+pcc7NK49hN26c5x7YS1fG89ZNIk7kgAsfmHszIY9HHHu+zCdQC+aia6uVXGnEpaqQZjjeXMQ69iGaeT0Q6zHMcdeeuZOtpGrpH4kABmPy9BVxtW1ugCmi606WiZtWYuLYMdcLXojWm8Cu4N744h+JJf8GPMo7PR1I1yXLw63mD8z5mGPCdxdxkNXPNa8JpQfJSCMosuWedY5OeH0GnYTK9UotMCEhF4iEsT9dirnMxJohZMajBRSHU34KNdSdPiZqPNjkmLmOfGMHqe1YzdxM1yISgLK/MdiZpI5BrsdXCm6IMu9wEMCWJQfxmKXoEHOb1V3HYN/5BqioYitDWh9Afb+WEfKT4M2lJIH2RJ9ms/H2MTeTXA0d+BWs3uY6+UcCkv7pdPHbAihR+9fjMHpzgm2S0EPfVeOb4Mr+gvMF9NN2R9sk8k27JufYPuMawkESyoCMIEI8zV22q2kuexLh7hwEOIGKgyIVrfeVzaYPOUNFzaVmLQQDd0atgpeR7EqgAnT4xSqlHbfijzqkMBlg0KtLlZk3izqqb8rTSlMJe5wAjoMiiAxlblMwNjX9LbcaVQP3KGlU6wwtUV6bQKWkVfGREa5m4YdYFOkSU12kHVlELq2DhwWaqLS5MGSc+brz6Ty9yANo10qBzoJc7fMh8FntJq0IqCCEZr2qxRwcxhUQe+rW5xPnAjgRRAM3Qg8NyZJ8sCCyhk9eDI6E5Qq3hznFSPx9oli4FExeJII+/911lO4HeRkADsOIryu+nh9PeS4yqLU9V/eHHb5DfnUBMs5JY403VVZiUsrlyP/vQBeee93fSPJp35dcP9WlFpN/IXkVOU8dw1eY50jxjanTHidoiaHMH2I60rB+pGcapYko+Q1BSjOjFd1BhVvMw4KZCbFtm4OLaa9+AP0C++Z02Mz4JvPG9Zylog2MEvTIBQ2LUQVxpOMcqrO0cqb31NCyE20l7W/8GEDY731w6Bd4zmFBbX7JBV7SjefnTq2aZ8qGQ/JOF77h1iOaogzh5gKlzO8HOnN/CInqMrLEx52RLPXHJwlEvifkYAiJwt3IfeyAgLcY5XPP1TWl39jiRFNK0SDjtu8fuDykj+vwlRV0OPohqKzdJBtn3ZPxrkMQ61b5Ksv2YOYG+wnmM5sBXkGTG33ybGRUczqgTT/jVE5hdPsi+2CZw3ZjFIZdOxWOwplFKFmeZJYcuj3zwTd227B8UcXI+N5DP88lgX+G57v+L9dTpxJRa+Q0Gvm2IMlLkxplWL06Kmep1foeOWn8cPwTOPoTbX4oObkv4GcafYZMrvuJRK7COl1I4dud2aJGjSaKY1FDYcS1nAg2lejbhsIy5OKqMIJRyKEEbZ+K3DHeoXTlkLVe0nn5EbqVnTDeb00YzqcBk6BojVbxPSRZXgXEm8RD7KdJbXksI2LRoshN1M4qNaz/oIgKCjv9wkPLTlIH2L5QV+qTMtRBJ09SGxkj5WT62NBk40drL2BvzNGFxMMThHov+St6Z27neuLQqMihzYIWNRYjmk0qzW/PjY4FYZUc0EajWJu0i0QroXQOztVkjRsIS1aCi9g2S7GH6Vw9ahLN/KOnHzvkuH0UFyU5gkiYbQK2eZEmCERbGuz03j1768Z+gVtk1W/06l/XHLJttBZPPlO7bviFhuY62qqzqIRiKr8wEkQtK9yc/YfRXy2sPYNjeQTGc7nw3Q84KaCxJFacNJxF/ZVKMziZeIPpaScwkqH80GmW3pS84/nEzjN0+CqxTMOyMZfT9Cvg7GevHmTQ8tMNrhD778Uozu7ouUWYVh/1hF4zUDfOzPlSS53ZtxPjNO1b6lvcbsgD6MhpzN+wLWPNJBD6jqIG4sg/f8Jsfo+ijZ8cqfqFEZMbm+M6TeBaIret8GjgbKbS5ez6e8kNIC1wKQrQ8GQ1HBG0eD3mzsab6vz4elw7KiQH9LRoqiPhg6OqccAuBYH4bYw4/g1w4qhH4xr4/byTrp13/GWTanVL9YBo+Nmnu/1Ot40rOPhht5+6Zww6NjRFqfTFkVJ9DqFKPQCIUyzx6OlGPM8FM1tDlu1hj2oezwWB6b+/X6VtjaotfMHVkKTsgZz2qxqzD9bubz4rYF47ViskAvILdJ4yDNZiZROq4aw8Hd89RWhal5tjGDzSPPGCBXP0ksuemYqPF26h/wnXXgNps2XYrI3FhkUdzNZnK/DlyPdwqN8YRoID3bvWssRvwZoJBJzs9BZZ/04+WS85aWbSviZQ/UHMK/M7BqSMF+SIco5MTKwauCfnqXs0ECj4Gcm+dRcOhMr2oPmnlU8rA6doC40vkrRLKlwvc3taNVzlXYFzlc0XMVwryPvUrh5uvxyJ+ee/D6+s+i+hHGMXKDkTZyduuzkxMPwTK1Ss6gET2G6Dr0AIwyIGDU7jLBqUbElmtxnsznA3KNZ4c/uXWfdDf6LnWRBFSvw1In0/KlR9Ha0LoNNe3dznOACIE6T+PZWxRTQgIz6AqDMeHzFBb5cupShplIZIRTCxId+zo2eP0X/2KlfRUhQO/96iIqFeA36Hw+Cueavn3NaN0pxmqoWwRbYGUoCwVtOUaJab6OBjSRUWiHEPw57581Jiey3m1j5emPCWBxVUNogPbvTM82logQcq7gkkc7FHopELNXjnwCZIjZgGqbd0dUvvk+OYsTxDC+rYsX7yjb19NAmILYfELO9mQC8bEMoWm5/pP3JR65Qo9FYnSGD6LYaHdbl/1K+CWujYeSDfwDsfGuUq4MZabJubMIAHb7vaQUY4wHBsCysyO+SHncZAmmhk/1XEfzLZPGd7PnrmUhfd4oQkvnjVj//3PgDAW5bjpwa6GTj9+VYpCcL+/12WLDAxFTUK7um4Zw2kAZK1g+pZ4OAw1PRp+ntoGL6HOIiGMh1HnVO5Rnt9wXGgWMRVX6UDcuceULpO+bvhDD8yGFS84N1s5Wnt+cnWbfv1/GVuaJBV6MSultMcNJwHlh49zJ1B1u1lBgMFyUMqhJeeopglR3J5J715pwJIK67EeH5EG+T7iwEBjMmyC6+MCeLb1sOGZ3wN/v9ijHi4gOOWtVnPprw9EIwaLkuSNJpX/eb3/LJO7H2jFE010T3o8Y3gUvUuG12xAdRsqIF7V+lEV/26aKuChdRM4GT9SK7WLvU+5vfcWNYUkF5J0ctsj7QAXp/j8b7koQQYGB1vVb8ke7kVa6rbJ4JvmGxsTVp1eeA2xXVTdQxTiC7aFxR6YLDcMdt992HfHuR/b0DuMrEUYKZ0jUM1Qg/jX1ORSOV4Yh1pGv/X5P/wdMxgJ+3wdSN/zoxkkROMzDTreQ9hhBMixlcCEOsgrXLIET6kkDNdZOgDH4UQabkSVUCSol46kBCJvAS51NcKgcUiiFrjs9LjUOHYsj9+OEFXJbbeNF2dK5gWvg41xTsZWLsstm4BdVSDuAvjK/1ktRate/aGCDwXdzN6CeXeOIXWIHYt6p+Su6UB3q5o8HXuHlRluHD0MQASP9Lsg9K1cO2XQrV+95x0KzB3s1iaV7e3AIptkxjaRlH/2O8tgru5es5lDNUq1ewWQc2QQKuVXO5o9WfiDzGYflNUrF8a3wYJg6PRWCdK6BSYlbC31qVo7WQ7QnEJTpUs32Pc+U++GZUD1gIuTXf50BUmEn6tNMYx2jcBNsk+3uN3A2iuUlHGYuRS3IDkchZwtVCbAkb2gezQnWrCrd0jTzB7K9OjxhDz05UVvXP15Miba5MqN5tem2RkiXqPu7cicREaCXHy2542ts4qnBBOyrtzbME+WWzJ09vtKDI4wRE6tCi71hSJjYKeORpp0sGca+oQvsRveoIOk3G+BByqYW8B0IwTWEyuopZeBszpAiNzdBZ06HeMrALFOWJJzVi56qjoz3427C80ukQ7vCWcUw5NIOieBD3nIbCJRl+YntvOz4NPQE2wR+EqxpWFJTWGUvPCj4BDPXIPjUD12oxICAr276XhtkksDA+A5hJCO0j29fEFgvhGZbBcVwcfDTx6ZpvZV1ECQ/9LbG+DzLCdYVIUTB2aCAeagtlRU9gm4hYd5B4w1zPB9TpnnhDAJIMQG37/iN31woypocUAIdasMjFskpij5CrQDQ3Jpib4CVLThIp1yKMK2HUJIlsXKlaiBVxm5ZJBzwRameKGM5jZKIT6wZRiyrvlVv9YuPOiBCHzmNCRx/Yh2JxtbNLHGnwspBpeM9lRsYEMwSlexRg9Y2IqaVyL9SmZ92d4Ly+uDy8grUVq+xO8NY0EShQH96mFWG5I6wc217cuJ3ptOVm9wDgWG0zvoVt2Qv1uSbDImakRbbJ6+tb/lANdw5kICE0qJBzm6h7ECqtFEccoXPyVd2gtGwHIc1aK+I3+IBPhmeipVQYZft3qPqVv8JFBPa6WePAUsNgt4BiqlBE731b38ezVPY+xlC0XOvZd8rSVbI957Cfrd4+ggh2s16Jy7lWNDsYhLVUl8n1GmRfhmVe4Wz5Aq2JcoGCLaH38nrkumHxm1b28JjMy+nUr/sINnMzvuFYM39s1N3RY1YzU2k+gSNegnYzNidfoHyHL5QBMPOxeoOz6SjHrNPoo+iEw786otnK1zVT+L1amnMKNGEIhnHUZdg6DXibbpz/ZFQtuRzXYWWBMCjmXxny+rjPjQQ0VS483d9wpW7rI3Fl1+y+pDFomgo4ztAVl2YCnZmVGGQlvsCkw7ysl+UfIj+I885P/jtLBQ8nFDwUAAuzr78/kmDa4cfyy+3IY4Y5EoL0WXgCez6UDkSAoGE+tgPsFDUmhZzOxqzuKPDfcj8Ex2NI5BfivmYcgBYY71/7laD/SJg4MEOmQ/ajYTKFvSZIzew2YFuBKGgHRHt15jmnbnqBjDr7Z3IL0nZll4YIqjgbfab55nXv4WiVYLyv2Xndgs3Gwn5/QF2oUBSlwCBSe9gQnZ2PhqKjREjmJEOHvuRbxTsx9sT5Fb1U+Je6nwrOuEk8OsO5gOBpWZJVIbHypv9yf39JXFspP/b+PwZWmYm0Akc7+RiOTfy+axBcTysAQSb1fw+2ZiBq/+RmyXI09Frpcd/l4q4jDQXVYNS4nb4bLjBbvI8z17IyvvrGUKiAf9rihhfc88ZnJY9yQQyAxfxu/KXKxGOlUvLUyeYfBYFpiG3/Xe1elljctxMTygq9Z/wrth87LpCLgc0mVMZ+3sgak0HjD50xBJAO/Dtdj3j2yiY6wYAldlySA1BUwoqW/67N7v63IS8qYHvDpfCiWk35b43Et3KuGq2D5R1UCzKAiM8KadUCAQFSKC6iMqxvwsJD4Qs0SYNE5yTDlRr1P2vFPvfVklNQBZiPDPdW1tftU1wKcz7HEhMoTC6YHxEAYy8jFLCU+//lr9jDTuy6D3k4+kAR5NAsHbiNWNJ4TZlG7mm3JIneyRbefUHbG4VmGpFouZEe7nR2qgXJ8EO0TNl+kimuMha4wFNYRI/rdH75VHuz90FrI3qEQWF2Jkz/GHtmfO1/btn7qDI8qaO8Z4twlERLP6jfUUZI28y9iGHZ7WHnwX8QrCdIjrTY+GyIzDbGYlbv0bnyLC1r+VKCJ3jcOfd0RXZ0UQvIgAvYRktasMqAu/eih2/fn4NnikrvyzNJOwZVcrPaihW5MgCFovu0BySVKVc0p/sf5j9tq/ykYCTIcn4O2bnX1t9nUYu8yrtWf29o2eyHs5NuDt0P1F36DsycY+U9V8eU3XP+E/YFZMILvyNJp3014FmbA7rITd35cv+3TDGzAlM+eVlmmX8qyxDOAh9yXVBB8ts/KFiVjE3MZR0T16OrbFCmcSibthJWL5uJtE0nW5sXeqPiG+t8cU1byLMtfMx2OY82ucZ5fMQYg4OkG3q9moNWI6LgPXYSH0uwie4DaBh8+i4m1Ixk2bluvZJ4DSm/5LfHqIv/nT/L36Fx4hViFF2J0O0O/BD/FcTxcyO6v5XNgXfeWAyF+zoHCpycfhEqAc1Ti0o3Yo2BgCsY0eix+9UUR1hgvXRcbrzQ1ClPezi7n/IDaQr0AHhLLR0LnhC9xGxmyHsPoGlBd5sXCCwp2JX4ptlyrThp3P/J7Q0NsYJ17FPi3UK7UbkpMtCxFGa1VnhO3G5yCzO/Uuu9FHQvwEQlfYmmeFFgOSMXk5WoACdqdijzMwduTw1Fo3vV/rQxnDFWyydzw/rZu8ewV+WNcWAqufYObKciUzTw8dsk1EnCk7eb9UT632bKzh8DswxPc+RdwvlaOj6v9puBYVO4dDy1n6zGfrcC35zjxQS2gg2Y5YEERHDe+JSKUFu6QDrC4DOYCdY/WHRECJ/4WeER8u0bF4FK2p2cOLCC98kAi0LBBr0Cnqc50WCx+MXBk9b3GXpqL9iXTvLDNDh4DKXYVGHgqri24VsDRdrlRk8aRibmwlkJpWNGK2n6j5iz3JMwKGtZcIYkIveqayeOOhZngPQ9OfXQ5FR3aVeoLfrMzUYQg+1LjY7VxT2VyFEyvCOqTQv/5ZSc2bEO7aywxTFgsbG+tX8SbcfGc7OqHudJyxUzdWaHJgo/rUZc8MCbgjuzRP4ajL4whMvTmyl74s9IjahsXDLwC5yEiziVyMXnAPj78q2R9M2LwiNU361UmcOO/AjWj3bP4jpOxLuSL5TPMsMReW4saHpJZfII76BcXsiFh7UreakDcH3+2Fc65t36hBAMOp/ULIXdgbUAY0uaE071xdImUaCwsQON6+Ns4AYWYiEtjYmWiHaIwy0vv8z4AMh3mmeddpPmNstUjRPNsDlMSDD8G/kZn7IPwzZ7sa1o0gvvGhW+PBCGZWF6TZFzbI05EVFmfMJaHCGw+IGf2AL5cawXT98LGyWctyk1YaQdr1o2jDjADw80LmyQNsKYlr7/6NqPBAM4ReQunLR9Li5mEXsd3fLMc84hIgYIKtkROQlcodt5ivvU/eGjrLwVrwxS5/HHo2BmMKdaXZJ8qB9GSApwTVWnzRsRfeghHPxBAk7qSLmF88cIf4ZxV7rI7qNDGiWFgckIxG/NeK0EIIJjWVLfCJRbrDSwmciuAmGWkCF6gPoxY9zz7l3jRhzuqPGUptRwU/6JIfyLbBdgfLKnAOwTHmZJQpt9jGcFlmumWJzcP8G2hepA3zRYh8Rxvne1/qIqMfcWW8pkOKbFgM4EB2jejGUqbQrEzjd1chfn/v8SLTpt3MkHcx9YZIOPU1z+yEyz1ncDp2uBiV4yimlofUmFyT5VjwR3lCNxo/3XcuvdcE8A7AxX0B0+YhKRx68LHyxe24lorhnuWpuMYLDzvJd0117VfEUM0PQUEsCXwrBXAWMedSNDx7TMr2PqicF+lcB70wCcfAQ03kceHpyr6pwvNP9aW/eQP/G4EQewAqtnzN1ttLP2zkRVe5Sap2GPXTLtbPMcuKkXsX4j8pwrrwgpheJVjrGJgUORVrmf6+7Q51k1Is2AYPC3IM1QAB94nbNQYS1QZvLirxXln9Zhz0fxeZDR3pHvcqqxJpBuMQVY933F24VQ+UhV+xDNTPap44+RXeItqCYNHO1AlQcCmg5e493/etmYHf6xSYXrqkaw0kIHIXlhfdRh7rYt1Xw/1Kj95ehRh9ucsuCttaGhFnaM1ZPJpJSE7y0yR2YvgS5rvp5URUAMhIe+XsAQi8Y/oO1T7dQ5DMeIKKyo8LY5UVujnHKh2xNb9dU2YEltKORycbsbYTuNRYxtkB3F/xsrdVLbqfaDlsOm1SrLKCajbzrwGdNrlgjYGX+ums9PEzGP0FUDpkI1AGHdU/dpWalqbnrrinLi3OPs7V6jKZ3pbGl7DParB0bzghWyQoKTEOgoJTZFJAbb761UBBS7VE3KH0rNQYXmKUeaDwsijUdIKOArJmrvinUmHMQUeXPSDGhSNFYo2vdtFosKj+GPjL2ORLEE/c48R5dLkD66BGjMWZmbkaoH7RNt0LLCC+7AHZwHRZcJbJy74cLE5rGBXsxngm50jwQWCU1Kz+vepx+prfHSIXUA+zWwkBw5xMiR9won9EGSmHNHqcZcJdnU9vTXnBfu4ysh4Vh6gH+iZ/DPcvGjppL0w61rT7jalfHS+h7Sh5SSXDQ+KrgF52fZGzDqOyBWCGQnKnTCNFer7PHTj371ZI6aMrKwmeuF44o3rVSu4r1yhbNfn8ccdVG+B+Avm3rBYgIXmzzCcHt0VKJkgI2wlVnH5Gyf+P+lROl6pAsz+XatCa5LDG1rPC7DtTL1qxz0E/E1/+O+fm2LmjSx5mUflpPb6a2ik45rQsf9woACKFZku2uK3l889BLfcKEOPClWB9zTy8e07KSU0mvKiXQP/i90hTMCkcuSz5NvCjguKZiDLuiOqpUE6erAAQiiUbUSw58fTF8G52ceKEaBiut3bunWg2SN+5maSXh8aWqkMn5OJta4NTF6wQ4tAP2plABTvl1ARvsOO0S++Iavv1949ezBhsuIGDXfDElYfxJwH/2D48Mf4IWkcw2fdEgqEkb8gS/OuoBhvcn8seGOxcojGLeJ0cTKzv2KIpdgUIdu7El1YlpawbnVfe3wNk3iSft3pSoJf/dTeb65d93GnfIX0poO6r5NtI0Hvq72fdSLJ3Maoih+Y5HmV6HTtrSm9dPIr+47sEpft83iUlJMXWWYJ+PcW6pywBwYwEDwSDg86RYHzMJpw3xB7Z5adsnVEhpljyg24hHzIvl6B8agxIt6Rd2P00zEKkzwoM+eyapDiucvYitpq6yDFbdj2OZP6ao9vatxtIkGqt1MbP8fso3YbyGSjj0/HXjvU4eKUqWFrRqlzMyYcGpnYrTYLcGC78pnvtF71ZBDG2OgGKMLUe5P2ylWemy82YWKtfzwBZA99LDtf+QSlOW3D+x2LM8k7bvxDSLCi47BLhZIm0Tp2zbosDQWEdcGekvFHEnIbFLAi4DdoEtK9DBO6003u3yGSs/ocqoW2Q9TGwa7papdLCZzVJTTa4faWV8mtQg+JXhS4Vh0hbIQShwo5vdoUhgRAyXO98DSsb5tHnA3mlM1hAikpCzU2XOJ+KTenHTntFwIFMM0NDYn6+sFR1vlyuPp5UANMyIxgaIz0rbsUABAnfWcFKS6lQE9YH2MzvmY1rMt9nRJpJ93WFa/TYErjfKYWZ2CC+crz9ZXB2QND9z+tTEL8BOIXlhFH/jRx60H1wREd+re99VYx6SmDIVvP5FLBTrDr1vw7YMG+Z1JuasIjjAZ5Q2LpYUjQPaUj364NounoFjjmHO3WFHppCXDN42MkSoekMdsKdEIY2i6YhvEaL22w4xFMtgCcCH2pqRpcoaGM7f1Mw2/5G2uD0ndu03gLrq7kBNJUS3BhtoGLvLmBiSrq4hYc2TeZpEkn9MujCX7GxuZfyahde5POEusZwAOfbs+/tCtzdsEkHZyz9HYCC6T9RPJlvxTeOAwJenIROzJI39harJus6CaTRWkIZ/SNdIZmT4NiJVe9u/J3QNKCbqMpix4KqeoVH0eARrRWHynQrsHNOIy80vp6dN+O6xUNkbCntwUH5tze2IXPjSUC9jWJJMGDJRfRvdVmDklKHYrZiH/r5bnrrDnCXjwCqitqr3E6ejjlZasrc84aoDL2lbMcjTZkRpe9JCkG79Bg1fIPaztIvnesJda1yU1wKDaPU8ySLmcxyI8Cc8SFqRgOOw2IMSjw0QZTGngJE0CgzUow6qcdrMcB6qZFwHWUH+j+Py0v1YSPuV23aVC8rzwEB5Vtt+K8fHW5wmKbz7T2w05zcEkratKOXKn2LzPRA3bjCidl9xG/2YQSIRS17AqTRoIXnriL8l4KjdJSnFSAm4oIZCJgGTazSe9yXwT1ItjeFwDupf/q7/6vHEdWipWmPyq0brmQdj0fqJc4VxQi+5wg072NhYMH+aR/gPliW4cCUdVFn6YjBtWVbxkrSSAN/oZCWbTDU4HUDgp7EOXFDg5sWkKwyV8yIVdwyiW6k0qS5QCMzas+9uJ0miBpqw6W800oW34RNRCuPeKu6+5RAjArIYf2euLgm1iPjv7yvXGtyiiifZcJOmSzK8Vg6kYf5W1G+2k60sBMzifi/FHMRtn0xzRe4SvNzp0cRYtOVbKXExvwbE6TfpsM7rkeBUfpsdSosH9yG9TqYzYcYzSmZJIbI934FyotwS75qe8IgX7MnHWmeF7VhNx2/dPeJnPArTWK31nwiSU24Sf5q0muEjs1Og5RElCzazvlOxudsnrzDhnwWms3Xy0m5nL+ZQwbiExMYTbCd9xyobiNg17srfz3mxD8bOwpoTk+QWh0yi230UaYQfcn85xtniOGsf1X4shLEeiGjGOWLetpzg8Lg6QQ5VccJoyZie2GzxeS26snDyYsPwSLY/NIhKSSU+yRfCg1nf4R+9zv4eFYAZlndHFjgN2eY1n1+T7wlQ6Udfv3XyINkqhjQ6XnPuxOn7k5B+6hnVMgna+v+yMUSGSopltAWHfFGIPoUrthDqpu9k9o+3x4PsPp7Kz3anZJwNSiMs7wjj70duI7s2SR3VTMOcEh54y55f3RUU8rhWhMcDAyDexaCOg3WQrtKLMtJpdlx3Rh6TgYGUwhCOCb+ijLHUsQzL2i0uFuTrjOi6pMxcF/PqKQ1fAx67Mspz+BbNyMigMNKjnSk3j5x5Zko+Oy89OpWN5ZM+AKjJ1YhdBGGV16nwKv6cXbHinptZVP7by5l5CVwl2GLPdGYvp0Ti0glCrKl5B+umgakr9Tojl6Gyq+9vrZJkDv98OK0IR2CPJS/Abl+DVAL42w/LYVSqNl2hqf/dCsXSRMewWPcxnidWn0AkMNrDrMMsOSxGtIxYyFtTCtOmdD/nZwNY3PFwoCagotRk5Ej1IbiucuqDQwbqOMclXhePRIwMEv0I6oTqqV/Lv7P64CBcHThLNz9jgtrRVeWXNJRGESBuGqqQ2RtTrOEgkQxme5Y+GAan5hyLlmftQkSvamdnpqxy+/d5wwBrnwSYX3fPSYL3uYhg1joY3gknII89o6/ASYCkru1vW7pw6XCNOXAUmeA1ei+Io3acEsTQwXRfMQS9nN+OVGP2MrcC5is1n5ziUscl/tmkLBGCVLKIbdVKZEsAMCR4Vm8CAFM2CBc9uv2V61AJVHb/9eA+q9TM+2nEBxdJ57cQcgxCUv4GZXHxFgTeUqyF1AlJBunM+QqovbbD3hmIevTH6I8t8W4Up1MuneNjzk6atg3aX1uUbTTH70TxoT80tKLU4YNi6X7dOXIOsg30AdeRQIyLZMSCl2d0UInRpmHo12qsSvOUGuP10fcErFd25Ddhr7M++te/M7ZNlDZO5aUahlIFf1jvKA8s4HjYvMSeIZPSJKqeH5M2YD0JEmreUO7rdUPqT1i0It7n8WNb8rtphttLVgFpCYCrDIfPaykaMOnMoR9EkZk/Ikqico/kBMvQG2Av0sMEsDD8il+wK/dySdpp7wdyuiCoSRTLDHVQ4lQsKxD1de4J+HqlTDaDCR1xY379cDFMQVLsWIOCsxvJQvm7lvf969uTSo30JvIokxRVTWeRfpmbj55/Vl+E2iF2nHqCWoowPmzg6jVUUdz7HlNBjS+ab4FW5UK8leSvLxx0B6iNoYh1v13OrLiLuCL4H42GgGngYnlXK54kre3nLwn3wM7BG09nZr1ryTSTbm6I5N6wSGlY63xOeYlcZQ8/ReSVCLa+RBlY3bW5tAjwu133Bx4+ippHt7m3tQspgy0loXXQZ0HMUDuRPLmh1uabLGD3fUQ5fLwExrHOmXUwG7W0ec+skHfYp90BAFhqCRn/BFKAkX3wfFI+b8kTOmSKsM1HnDrL8luUdUYXkKyS00mdrecYaxk4YmR9YsNcOD/69+ak+xqQtmfFsKnNo4bBgAKR3zIJ0cKXrcToZKi4kjAShsW6nfFKgKlCU/4rt8etdBU77KCTy9pDFbJYJVY2Nmw1Lnm3BVw9i1o3Suj3fVbHH8jn9pKQvAN7SRmJEBPmeVYb5lnPAig3KQ4Jv5x6/RgPy9FYtgD8yoHwfV+GuF9LFo29nfXD/me3Vzd2VY8gpNB+Jr2IvurQqCgjn4MzYLFrE04oBVnZTFES5pDwW4y6NcjMsTljFRehW1kPYyQJA8yOzKh4S+GndCpedRvkCzu1vjTigiCFAZB6Ov7NrKpKa+s1HJTXkMyxy6tSOJFex1QASUXGue/O66pD0b7BcJfKcx7WSxGb4NEwNQ3r4p8ScBN4akLSiLHdKehRG9VvAndFS233i+Lz9bIZ1O4ymZQKpCvfmTXODeA/cxaHcLbPq9Kf0mykUw8BhCpqahauZ4H6K6+jC4TiFgNWCdJB+PJ/HD9Mqh/zMtmzSPrb4GerSUl6NbvDQx4/ZwBvB+1G2tdllxAuy0J/yL7ycwYWSQ/9K1JpJ9/Asv58pKb6FzhDFZT7xHPyLCud5pJXbVRkS78/FiDetmtdV70W/OZ5IDH3PopY2IorZJvqdIRnY1B4sOJHjt0D1EgEJCAGdhXELzMkdBz3iSywUYkfGpTC8M7tykRrM+INlwju0BFv+eBNC/op1w99kPlVLpB+Se3cWTXrzIB3i7ZGA/R2t9Nlb/wr7II4rgoKV51kROErkrfikFLRch7nEvdQMu3VHQVzYkQAwfjLC057Pxn6cnjsGUn5agR5+lH32PZ0wW1KbGNf5QPb5qs9M8op64WAdtuGTA80tmPGCkWJf0suqN1rMMXSFmcF1xGWBI1U0W9ANCEYbNSaKGpZspy3QnGh2QDA4AkGC3o1e4HPeIKbWj2O/NY27eOWu6vlAytjgtMl2GGeyNCODW09UX9kO0jWLg2X6y4Do8uQ4Tb/xP4RE/o2vD6vCHj/UhpleDiBTE4dPuv42Mn4hv3ziiyOjEHNC6cLWygQMQVMoEUC2W+VaqAjTJrkDQTWyQG7QX/vv/KlwBYiyNDsVBbL1MqW4U5bYBwvk9bdaKxGyWef4qPPuOCtQIH9Ta+CeerBi971f51eGUC7OkjOCHRsURcpThDWs4x+i+Ytn7VuwBHxPUiCieqjhPjXc1GbCjTICFNbtG9XlYEUwDFVk5aRyRk3qw/Jai4yURek0Hf2ueP+6KO2pe4B3zbsTaFdhCsAk5tEprqi/A3osaeNLoSLNWSRPkz/2tsQuPw2n6dGcssW4VOyXN59vdOzOrIZuA4H7U0rO0UjaiWRVtF5Wf0rqX1lUVUiOx16ygg/e2/GOrHubwDwXAkLOSwe5a0S41Q0IgoHtcyEKrzmenFfwA8dzYjUfx527IIFAwTBT4j20AWJHNUM19pavwC41pAhiZ7nr7W0clGNLlYLaNwlIqur/u7DeN06QqmrIP/l3D8312lhb3JXFP3FeQCYzsrA3a/8UogIYARU8mHp2wbkX6N8Z5LYeWvp01eg54Odov1YE3P3pFniqXLHhQ72VrDxD3M30+THomsqcTLM77r+7sv4SJ/K8zhLi9Za2uOlOl6XiwO/dZhbmOsEsDVFNzkPl7sSlky16d1YddsMEXB4y83nRqlhG5Mu6J+PmcYPx4L1MayIk79Rz1ZQVzMYH4om6RqJRn09rOSl7rrhJ0DCCXY4/83uH7hsmRxDo9sFCkMa6MzGQMUJvLWmQi5Oaf/9FW1FbzWSYV7hHmS30DWKU0HHGoMY4mIhpJ6aFquT9LJW2TVENXvlvKtzPGtmKRzo0+974fOWCXyaY7Fy2EIlgWRSlRR4j71LjKdKV1BkSIoPuMxK+17Yf+RyQI5thE0lknZOcnd4DP9Ty8aEiQDZ6pJhSO8BXHLK+3u2quakd3FaxOT+whlhi/3HWu8Sv0wEYmxs/4HCYVmHk2FK2F5N/YDEAXi/7UrP1fkVkZLqlFEKNYdBNoF9nCvY++VqabJ4V2lBbGwaSC++AsCzr4DXDmbDlWmXtM0c6kRqn4kiaKJzobsbh/ybYVdWNuNot46cgI64xLQxpqQXTQaavuaSNHOm57GneoeuX83BkmUo2QUbxJ0v98Fqnv1Ay8gA0kORrilHSESxVdISQVYLTeXttYSPph9laRR8VU2cv7pPkofyPEU8GivHIW2FFxF8DBWCiRbjaqf54ukG2nOp9s2b8OhPRKF3Q6Fwkft+vmofQwSTv5bnl3y7LzfKpPTPGfby611XghLc1BUWI6N/WM7Mq2pWj63N6YiwPUmm7Bt2r+fDzJZeEf5iKTPhHCLzdipTbDvKrMFuUdGbabqq9DMKI3Wmzh91UZsW+ORxa+7XdI7Jwk0Qvi17z23KVQCDaSckpb7JWYOLzORc6K2Vzbt6H6ZZN6satV8++iU45WFetfYnCc2hEMShi22acol9wmKmRj13JX40knaXXJy6wvBrE7twNQRWbbZ8cvmwbAdisXWUuhf7SROPwUcpRx8TfTYZVzHe/SLWBl+hDhrbgT4rrPJzrLQxldEIwQ9+WBCjnH81H9LtvMszoemF7lSo82GPGbxIoyi+jzMllei6T3M9Xk4QZNsUvMXCMLS6oPnjM/y0MtvJbpWla1Z8afEVF7n1sAXxBNR1mzscvkdabKYyBiZ0ejj6azSZHQtOcUC6lKtj40J7XCz2wgM8IOBtFSwwt0aQXqK4iCzBZwg52KPK3Nkq5NZPd5B9zOUeFwUhkY3zbUTkXfI3cYFxh1JFv82nsWM84kczw08+IUBZsyJK6PbAbEhHN7uezV5W8suDF0dqUBR2ER2204iIa+EnYaBZZMvyNmeN7Sod68ZyK/9SkNf2R9MScCwBpFdoq7wA6YYjgSD8xUIMozYwfdubVJnhg6xKOlv2XGxp+Md9IffcpG1VbQpUu1ptpLvJKe80DGBw+HhgRc/CiAJcUvy2Mw1Za70OKmHnxf3OXU3/BZwAIAPU+kh6qjA4ChuGbfUN9igWBvHoGKZyhWmRYW5TA/k23YpzNOAg2PmCpRvDM+PKjeyRoyKYhWjBN4PBcEB47Ny57bcl8TFBqZEvcIBTSzGYghpYqi02zSe+xPy6fXCm0GtZl9icg3mrBgvAJOjEaRTkDtwhnoPSpm4pur2VfMQAF9NSdqqcZByYF+blDpwVqPm0LfwZb1LCEEtVJwo2FUT57YKqCSPdCkPH8ex477TX7MqLnyU2CI+Pu3bAmhVLgcXrm2aQ+DKPqsYfXnWVmMw7TJ1pBlJAcaRFzFaN2vZKLI3nVGDIlTfbfEtnyfSpGe9HWQz8p/py1GCGtNEHPpThIW+r7ZGlNWSUHWPOHXBYLesoKnAm+8a8w9UwI3SvSmKutbjr6xAUX/zqkyfaN8O+NM6Xfr6lxg/tx65YJKr2oK8+QRpbAJBJw9JmD8iawJTpAjlGfDB1fdh3qH1qE0I/4+ISIIsGwwuWbxQG0REWW79jDpdmNugLWR1J6Mffu8coPUZfibkc0M2g1/JrnmEsmtwLEDsSpuI03HjvNgCKlV+h4f83CkldQNQ7RfOPdXlkH0zhGctskGfITb5AihXpSlTv1SyazEETtXRH9in+5a8U/F8pH4xCDiLV/EvbMT9oUtWF+dkMNQIuapGi5/lQ7qqWrZuETwDqMMtfzUoU9A/EjXabc0HKTmX7/yrjg1ImMfbI53PE1lQlz0r6K5n+zmE2JEdEwA9EqDrZpIvy3noJSJ61XHnpHb6tz/3mi0js2FpUWIj06QMWu0J8Ahsr0LD0i9wh11gWQPKikTNBEPE02qeYtaoK6pldOKpg/mHNWvr+9KVOQZ+ee6/RprT1B5sKKM2pEjW01W4oMGn9PdNShxE3dsj+TC3Ar2LsFMsrXgYSkplH/6uNpeh6ZAOUWuumg9+x9FNkyho1yOQ/1gxMuFdtn7ciNpmrQWbyFCISPuxasb4I8toMRukizqhv7TR06BACF4f5ew6kJqgtBU60L/vh6XP1tFfsiZuoVWdyxLllQ7Hg+U0arkdrifLH2Iu3nbCLmbXgul2rdOwgqNLjQp3iyA9bE9GDiCBJ8bBf9bkge088LvOnkt3BECVrCYgGacJW8IIsbedOtzqgmjsMXS0AgPFxeiv6RKjVPSgTMgkCaM1Op3jRpw/zsbwNhirBa6XOc3jXTMIYgP0XRVSiGVjKw3Kww7i5HcYUEFx6fTd8IUhp7U4czv5CmWslBvnogC02u46ZXrAhaM0b0yv9zO8FZPynnLPQv/30g+IXya7S1W8v6Lp3UcJ05wqx85DYZVngabiANIlfpr8SW4jdAEItlW6U8YtAClkkzHZnFeBiSJk9XvlzIgFGKXlAFl01m91J2+ouZCIQuij827BGOozV6RWoqHXoV4zg3vzs7hqrsLMJlULznuVXlinOhGjMir7MgZPOImXwJ66lIQoyDN1Wy8e+85GyuwAH1ODeNxTy+bSR7Cst1TwzSiq8gIYH7Ns/f5829NBmFbS3w8zK5UD2jkbrWz1lSc1GWBKlt7H7J9GUQ2lPjimyRc7t42q8VLuMIwa7YjElvl10bwDwBajJMdk3/kruG5EGneooOX0BmmHy1kVkEO61aP5obABD8HHod8MS2L7bbbLRYVRVFMDEICGs4Qq4A1vj6uXNmCmOIFwx3WBT4BAURCLk9mSKq+YQYI6S2QAXdWRBn80ohGIsani4An+QWCngDN2ke9AuD5jTPUl8e6QuWnFmpiamVREiS4bMG+hOxmbYUxS+QgdBJwfSaWRGwYXr3bqmf05hmXR4MCumh8AKW0KQSvNbgNC7K4IChMl93z6ddOHBe+wA07Z1UbgbVD5zxUz9KMdvAZjnMUbC6uPKDgKx4KfZcVkUNjYWsvEQ5SdNKsS0ZfcST7JWd/6urIpesbewhPqSIc8+4Ebnw4j2n+hUtg0JHfIfs5p+dFshi63q570WogKD17yCEHMcR3dER9q+gWcFyYZcI4QL2mHl7xQ9eidxUYz7MjBNNj/1bS4Pj9nNhGe6eZOBralLHHO3gDeJ49Dyk3swCWQkmQUgnl2eLjDKPVZMhPt1V2mLRCQhSuifTBUeqpgqaYdiQKuIixW1lvU6fAvFl6fS5tfmlZF6jOWI/cG5eq/2KjYVK2gZbVsXcpJg0Z8i7i3NwmT/vYOWZ2ZE69znaU+QNsasJDefkwWwnysWSKVgTLSTNhz8m2Wy36a+ShZPnJRhZBVXrd15Jg7vnO7TkBhaCDvvF1Bcp96ryAbE2gxYMEQfo5fTFhZZur528HfK2sgnQw5wZPtwAFr2J/C8+H+++4Zy/mXZg734wL/zLDM8Ew9D0yDjxbtmljwQ1/0f2CarwytoEvUZG0DqqATq+g8sxvHhZQz62ajUirVbtGq6QCC4v+l+/u4flBOpUHjncxp3qdCTf/AhAcp9pW6bzsm5/hW0C4LyAB8UxDLLw37gejD2HQ0So4K4ccV8/8XHdQivbZktVufwNiRBKUj1njnmntz7lAwR/bHIipEABLTpMFYVFFoOLaf5nNEA8dC23gbVYc19l5edF1iiLgrreQasEJgKirNXxy1PM9RWc7oAK+RqFQOnh7pVpZKbRpRxn+b5sXhA4kK8M145e0dtlN40kbdoVnZnBJeBVEJzTor9ea1Y7mKaE9KX2r7tWS7xyve7DtHJ0qHjF0nYdoVIIDxS6ZfD7Rt0Ycm8w9XrPl4eInm04abgbnANciHGhzLOHpCC1OLqWLVPsfFDXXbIEV8OKFG2ox87AJFKrhDBuLkZEG1igV8kkorkJ6YiVT6O5ggczhgWfKpewgZFc1Ufe83sAxzYYt9gtZZP3y4LxQErH/+5zR5Awb//nPuzYOXQqXRAnDhvl2AUmOv8b4R7Z1Ns+zCpfgIZVyODckx64cQ24LC6heldTq8WOOMGYatJ5NXDiebZqijBtnlay6ywIfQly6/KQAAAAAAAAAMJCUZOwQLMhjIAAAAAAAAAAAAAAAA==;" vertex="1" parent="377UjnZa45Ls0XzChAwu-17">
          <mxGeometry width="600" height="458" as="geometry" />
        </mxCell>
        <mxCell id="377UjnZa45Ls0XzChAwu-4" value="" style="ellipse;whiteSpace=wrap;html=1;aspect=fixed;fillStyle=solid;" vertex="1" parent="377UjnZa45Ls0XzChAwu-17">
          <mxGeometry x="100" y="240" width="50" height="50" as="geometry" />
        </mxCell>
        <mxCell id="377UjnZa45Ls0XzChAwu-5" value="" style="ellipse;whiteSpace=wrap;html=1;" vertex="1" parent="377UjnZa45Ls0XzChAwu-17">
          <mxGeometry x="210" y="280" width="55" height="55" as="geometry" />
        </mxCell>
        <mxCell id="377UjnZa45Ls0XzChAwu-6" value="" style="edgeStyle=orthogonalEdgeStyle;rounded=0;orthogonalLoop=1;jettySize=auto;html=1;" edge="1" parent="377UjnZa45Ls0XzChAwu-17" source="377UjnZa45Ls0XzChAwu-4" target="377UjnZa45Ls0XzChAwu-5">
          <mxGeometry relative="1" as="geometry" />
        </mxCell>
        <mxCell id="377UjnZa45Ls0XzChAwu-7" value="" style="ellipse;whiteSpace=wrap;html=1;" vertex="1" parent="377UjnZa45Ls0XzChAwu-17">
          <mxGeometry x="280" y="160" width="80" height="80" as="geometry" />
        </mxCell>
        <mxCell id="377UjnZa45Ls0XzChAwu-8" value="" style="edgeStyle=orthogonalEdgeStyle;rounded=0;orthogonalLoop=1;jettySize=auto;html=1;" edge="1" parent="377UjnZa45Ls0XzChAwu-17" source="377UjnZa45Ls0XzChAwu-5" target="377UjnZa45Ls0XzChAwu-7">
          <mxGeometry relative="1" as="geometry" />
        </mxCell>
        <mxCell id="377UjnZa45Ls0XzChAwu-9" value="" style="ellipse;whiteSpace=wrap;html=1;" vertex="1" parent="377UjnZa45Ls0XzChAwu-17">
          <mxGeometry x="440" y="240" width="80" height="80" as="geometry" />
        </mxCell>
        <mxCell id="377UjnZa45Ls0XzChAwu-10" value="" style="edgeStyle=orthogonalEdgeStyle;rounded=0;orthogonalLoop=1;jettySize=auto;html=1;" edge="1" parent="377UjnZa45Ls0XzChAwu-17" source="377UjnZa45Ls0XzChAwu-7" target="377UjnZa45Ls0XzChAwu-9">
          <mxGeometry relative="1" as="geometry" />
        </mxCell>
        <mxCell id="377UjnZa45Ls0XzChAwu-11" value="" style="ellipse;whiteSpace=wrap;html=1;" vertex="1" parent="377UjnZa45Ls0XzChAwu-17">
          <mxGeometry x="420" y="30" width="80" height="80" as="geometry" />
        </mxCell>
        <mxCell id="377UjnZa45Ls0XzChAwu-12" value="" style="edgeStyle=orthogonalEdgeStyle;rounded=0;orthogonalLoop=1;jettySize=auto;html=1;" edge="1" parent="377UjnZa45Ls0XzChAwu-17" source="377UjnZa45Ls0XzChAwu-7" target="377UjnZa45Ls0XzChAwu-11">
          <mxGeometry relative="1" as="geometry" />
        </mxCell>
        <mxCell id="377UjnZa45Ls0XzChAwu-13" value="" style="ellipse;whiteSpace=wrap;html=1;" vertex="1" parent="377UjnZa45Ls0XzChAwu-17">
          <mxGeometry x="150" y="30" width="80" height="80" as="geometry" />
        </mxCell>
        <mxCell id="377UjnZa45Ls0XzChAwu-14" value="" style="edgeStyle=orthogonalEdgeStyle;rounded=0;orthogonalLoop=1;jettySize=auto;html=1;" edge="1" parent="377UjnZa45Ls0XzChAwu-17" source="377UjnZa45Ls0XzChAwu-11" target="377UjnZa45Ls0XzChAwu-13">
          <mxGeometry relative="1" as="geometry" />
        </mxCell>
        <mxCell id="377UjnZa45Ls0XzChAwu-15" value="" style="ellipse;whiteSpace=wrap;html=1;" vertex="1" parent="377UjnZa45Ls0XzChAwu-17">
          <mxGeometry x="330" y="335" width="80" height="80" as="geometry" />
        </mxCell>
        <mxCell id="377UjnZa45Ls0XzChAwu-16" value="" style="edgeStyle=orthogonalEdgeStyle;rounded=0;orthogonalLoop=1;jettySize=auto;html=1;" edge="1" parent="377UjnZa45Ls0XzChAwu-17" source="377UjnZa45Ls0XzChAwu-9" target="377UjnZa45Ls0XzChAwu-15">
          <mxGeometry relative="1" as="geometry" />
        </mxCell>
        <mxCell id="377UjnZa45Ls0XzChAwu-18" value="&lt;div&gt;&lt;u&gt;&lt;b&gt;&lt;font style=&quot;font-size: 22px;&quot;&gt;Game view&lt;/font&gt;&lt;/b&gt;&lt;/u&gt;&lt;/div&gt;&lt;div align=&quot;center&quot;&gt;&lt;span style=&quot;font-size: 14px;&quot;&gt;&lt;font style=&quot;font-size: 14px;&quot;&gt;Contains primarily two views. The map view to see the overall progression of the story and the story view where mini games and narrative stories happen.&lt;br&gt;&lt;/font&gt;&lt;/span&gt;&lt;/div&gt;" style="rounded=1;whiteSpace=wrap;html=1;" vertex="1" parent="1">
          <mxGeometry x="40" y="-1080" width="740" height="130" as="geometry" />
        </mxCell>
      </root>
    </mxGraphModel>
  </diagram>
</mxfile>
